<svg xmlns="http://www.w3.org/2000/svg" 
class="mx-auto h-auto w-32 py-3 sm:mx-0 lg:w-40 lg:py-5" 
viewBox="0 0 220.000000 54.000000"
preserveAspectRatio="xMidYMid meet">
<title>
ayerbe logo
</title>
<g transform="translate(0.000000,54.000000) scale(0.100000,-0.100000)"
fill="#6B7280" stroke="none">
<path d="M297 433 c-7 -12 -117 -319 -117 -326 0 -4 20 -7 44 -7 42 0 45 2 56
35 11 34 13 35 61 35 46 0 49 -2 63 -35 14 -32 19 -35 55 -35 51 0 51 3 7 122
-19 51 -44 121 -56 156 l-23 62 -43 0 c-23 0 -45 -3 -47 -7z m57 -145 c10 -38
7 -48 -15 -48 -17 0 -20 4 -15 23 3 12 6 28 6 35 0 21 17 13 24 -10z"/>
<path d="M500 430 c0 -5 25 -54 55 -107 51 -90 55 -103 55 -161 l0 -63 43 3
42 3 3 67 c3 58 9 78 52 158 28 50 50 95 50 101 0 5 -20 9 -45 9 l-45 0 -28
-62 -29 -63 -31 63 -32 62 -45 0 c-25 0 -45 -4 -45 -10z"/>
<path d="M820 270 l0 -170 130 0 130 0 0 40 0 40 -85 0 -85 0 0 30 0 30 75 0
75 0 0 40 0 40 -75 0 c-68 0 -75 2 -75 20 0 17 8 19 83 22 l82 3 0 35 0 35
-127 3 -128 3 0 -171z"/>
<path d="M1120 271 l0 -171 40 0 39 0 3 63 c3 56 5 62 27 65 12 2 34 1 47 -2
20 -5 24 -13 24 -44 0 -71 8 -82 55 -82 l43 0 -5 62 c-3 35 -10 71 -14 80 -6
11 -3 29 8 52 21 44 9 90 -30 120 -24 18 -46 22 -133 24 l-104 4 0 -171z m185
59 c0 -23 -4 -25 -52 -28 l-53 -3 0 31 0 31 53 -3 c48 -3 52 -5 52 -28z"/>
<path d="M1440 270 l0 -170 83 0 c137 0 182 22 194 94 4 28 1 44 -14 65 -18
23 -19 29 -7 46 18 24 18 49 -1 84 -19 39 -60 51 -166 51 l-89 0 0 -170z m180
70 c0 -39 -93 -41 -98 -2 -3 20 0 22 47 22 44 0 51 -3 51 -20z m5 -130 c0 -23
-4 -25 -52 -28 l-53 -3 0 31 0 31 53 -3 c48 -3 52 -5 52 -28z"/>
<path d="M1759 363 c-1 -73 0 -238 1 -256 0 -4 57 -6 128 -5 l127 3 3 38 3 37
-90 0 -91 0 0 30 0 30 81 0 80 0 -3 38 -3 37 -77 3 c-70 3 -78 5 -78 22 0 18
7 20 85 20 l85 0 0 40 0 40 -125 0 -125 0 -1 -77z"/>
</g>
</svg>