    <svg
      xmlns="http://www.w3.org/2000/svg"
      class="mx-auto h-auto w-32 py-3 sm:mx-0 lg:w-40 lg:py-5"
      viewBox="0 0 1033.583 318.543"
      ><title>
        Dometic logo
      </title>
      <g transform="translate(0.000000,256.000000) scale(0.05,-0.09)"
      fill="#6B7280" stroke="none">
      <path d="M660 1875 l-644 -646 209 -209 c116 -116 224 -217 241 -225 38 -18
      87 -19 117 -4 12 6 181 169 375 362 l352 352 388 -388 c213 -213 392 -387 399
      -387 14 0 411 408 429 442 18 31 17 93 0 126 -12 22 -914 927 -1151 1155 l-71
      67 -644 -645z"/>
      <path d="M2653 2307 c-135 -136 -214 -222 -218 -240 -4 -16 -5 -49 -2 -74 5
      -45 11 -52 361 -402 l356 -356 -393 -393 -392 -394 220 -214 c238 -232 257
      -245 330 -225 34 9 130 100 648 619 l607 607 -643 643 c-354 353 -648 642
      -653 642 -6 0 -105 -96 -221 -213z"/>
      <path d="M18010 2439 c-407 -47 -764 -319 -930 -709 -78 -184 -108 -432 -77
      -635 72 -466 404 -841 854 -962 89 -24 115 -27 288 -27 169 -1 200 2 280 23
      189 49 377 153 508 279 l68 66 -207 207 -208 208 -59 -55 c-99 -92 -251 -154
      -377 -154 -25 0 -76 7 -113 15 -269 57 -457 293 -458 575 -1 106 13 163 62
      265 164 343 605 432 880 178 l60 -56 205 204 c112 112 204 209 204 216 0 6
      -32 39 -71 72 -193 167 -409 264 -642 290 -108 12 -159 12 -267 0z"/>
      <path d="M7907 2405 c-488 -92 -865 -488 -938 -985 -18 -128 -7 -352 25 -473
      50 -193 166 -396 307 -536 344 -345 863 -437 1296 -231 133 63 232 132 327
      228 99 100 154 174 214 292 237 458 153 1019 -207 1380 -149 148 -334 256
      -528 307 -125 32 -372 41 -496 18z m387 -600 c271 -94 438 -385 381 -666 -25
      -129 -74 -220 -164 -310 -116 -115 -240 -169 -395 -169 -157 0 -278 51 -397
      170 -189 188 -229 443 -108 689 83 167 246 286 434 315 59 9 181 -6 249 -29z"/>
      <path d="M12558 2403 l-238 -3 0 -1088 c0 -1015 1 -1089 18 -1121 9 -19 30
      -44 45 -55 28 -21 38 -21 798 -24 l769 -2 0 228 c0 126 -3 257 -6 291 l-7 61
      -524 0 -523 0 2 188 3 187 428 3 427 2 0 240 0 240 -430 0 -430 0 0 140 0 140
      525 0 525 0 0 290 0 290 -572 -2 c-315 -2 -680 -4 -810 -5z"/>
      <path d="M14130 2183 c0 -205 2 -231 20 -268 35 -73 44 -75 337 -75 l260 0 6
      -227 c4 -124 7 -511 7 -860 l0 -633 310 0 310 0 0 860 0 860 310 0 310 0 0
      285 0 285 -935 0 -935 0 0 -227z"/>
      <path d="M16190 1265 l0 -1145 310 0 310 0 0 1145 0 1145 -310 0 -310 0 0
      -1145z"/>
      <path d="M9450 1281 c0 -615 3 -1133 6 -1150 l7 -31 283 0 284 0 2 657 3 657
      260 -647 259 -647 191 0 191 0 260 657 259 657 3 -662 2 -662 291 0 292 0 -7
      31 c-3 17 -6 533 -6 1145 l0 1114 -356 0 c-341 0 -358 -1 -390 -20 -18 -12
      -41 -40 -52 -63 -11 -23 -125 -322 -253 -665 -128 -343 -235 -619 -239 -615
      -4 4 -117 296 -250 648 -133 352 -252 651 -264 664 -44 49 -61 51 -431 51
      l-345 0 0 -1119z"/>
      <path d="M4836 2380 c-15 -5 -37 -17 -48 -27 -50 -45 -48 4 -48 -1168 l0
      -1097 528 5 c485 4 534 6 617 24 237 54 422 159 593 337 135 141 229 306 280
      494 24 89 26 113 26 292 0 180 -2 203 -26 293 -64 235 -207 455 -390 599 -181
      143 -363 220 -588 247 -100 13 -902 13 -944 1z m948 -585 c246 -64 416 -290
      416 -553 0 -163 -54 -296 -165 -407 -136 -137 -224 -165 -522 -165 l-203 0 0
      570 0 570 208 0 c154 0 223 -4 266 -15z"/>
      </g>
    </svg>