<svg xmlns="http://www.w3.org/2000/svg" 
class="mx-auto h-auto w-32 py-3 sm:mx-0 lg:w-40 lg:py-5" 
viewBox="0 0 379.000000 81.000000"
 preserveAspectRatio="xMidYMid meet">
<title>
epower logo
</title>
<g transform="translate(0.000000,81.000000) scale(0.100000,-0.100000)"
fill="#6B7280" stroke="none">
<path d="M183 796 c-69 -23 -112 -55 -143 -109 -74 -130 -31 -295 94 -359 90
-46 225 -31 295 32 l33 31 -45 34 c-53 41 -58 42 -82 15 -21 -23 -73 -35 -111
-26 -32 8 -74 52 -74 77 0 18 11 19 165 19 l165 0 0 54 c0 60 -19 122 -51 167
-44 62 -160 93 -246 65z m131 -127 c45 -53 38 -59 -73 -59 -94 0 -99 1 -94 20
9 35 61 70 103 70 30 0 43 -6 64 -31z"/>
<path d="M1015 791 c-22 -10 -47 -26 -55 -36 -14 -17 -15 -16 -20 11 -5 28 -7
29 -68 32 l-62 3 0 -388 1 -388 74 183 c41 100 75 187 75 192 0 6 -13 10 -30
10 -16 0 -30 3 -30 7 0 4 19 65 42 135 l42 128 98 0 c54 0 98 -2 98 -5 0 -3
-20 -46 -45 -95 l-45 -89 51 -3 50 -3 -60 -87 c-34 -48 -61 -89 -61 -92 0 -14
84 -4 120 14 78 40 119 122 119 240 1 123 -53 206 -153 235 -64 19 -92 19
-141 -4z"/>
<path d="M1553 796 c-69 -23 -112 -55 -143 -109 -55 -97 -47 -218 21 -300 88
-106 284 -117 383 -21 51 50 69 89 74 169 10 153 -81 257 -236 270 -34 3 -74
-1 -99 -9z m137 -131 c69 -36 81 -153 21 -207 -25 -23 -41 -28 -80 -28 -41 0
-54 5 -79 29 -35 35 -46 80 -32 131 21 77 100 111 170 75z"/>
<path d="M2915 801 c-54 -14 -113 -50 -140 -85 -79 -103 -69 -262 22 -348 90
-86 251 -91 341 -12 l37 33 -40 35 c-22 20 -43 35 -47 36 -4 0 -24 -12 -45
-26 -31 -21 -46 -25 -83 -21 -48 5 -90 41 -90 78 0 18 8 19 166 19 l167 0 -5
68 c-10 134 -84 219 -200 227 -29 2 -66 1 -83 -4z m112 -123 c11 -13 24 -33
28 -45 6 -23 5 -23 -94 -23 -56 0 -101 3 -101 8 1 4 7 18 14 31 29 53 116 69
153 29z"/>
<path d="M3510 799 c-14 -5 -40 -26 -57 -47 l-33 -37 0 43 0 42 -70 0 -70 0 0
-245 0 -245 70 0 70 0 1 98 c2 225 22 267 129 267 l60 0 0 68 0 67 -37 -1
c-21 0 -49 -5 -63 -10z"/>
<path d="M3729 799 c14 -5 30 -13 36 -17 6 -4 2 1 -8 11 -11 9 -27 17 -36 16
-10 0 -7 -4 8 -10z"/>
<path d="M1900 793 c0 -5 38 -114 84 -243 l83 -235 74 0 74 0 41 153 c23 84
43 155 46 157 3 3 26 -67 53 -155 l48 -160 71 0 71 0 79 233 c44 127 81 238
84 245 3 10 -12 12 -68 10 l-73 -3 -42 -148 c-24 -81 -45 -150 -47 -152 -3 -3
-24 65 -48 150 l-43 155 -78 0 -77 0 -22 -82 c-37 -143 -59 -220 -63 -224 -2
-2 -9 15 -16 38 -7 24 -28 94 -48 156 l-35 112 -74 0 c-41 0 -74 -3 -74 -7z"/>
<path d="M3677 782 c-26 -29 -16 -102 14 -102 6 0 3 7 -5 16 -18 17 -22 69 -6
79 6 4 10 -10 10 -34 0 -45 6 -50 26 -23 13 16 13 16 14 0 0 -10 7 -18 16 -18
8 0 12 -4 9 -10 -10 -16 1 -12 15 6 11 12 11 15 -1 12 -10 -2 -14 7 -14 32 0
32 -3 35 -33 38 -18 2 -30 8 -27 13 10 15 -1 10 -18 -9z"/>
<path d="M3782 740 c0 -14 2 -19 5 -12 2 6 2 18 0 25 -3 6 -5 1 -5 -13z"/>
<path d="M3718 673 c7 -3 16 -2 19 1 4 3 -2 6 -13 5 -11 0 -14 -3 -6 -6z"/>
<path d="M540 560 l0 -50 105 0 105 0 0 50 0 50 -105 0 -105 0 0 -50z"/>
<path d="M2133 203 c-7 -3 -13 -16 -13 -29 0 -13 -5 -24 -11 -24 -8 0 -8 -4
-1 -13 6 -6 12 -28 15 -47 4 -34 4 -34 5 7 1 23 8 44 15 46 10 4 10 6 0 6 -7
1 -13 10 -13 20 0 11 6 21 13 24 6 2 10 7 7 9 -3 3 -11 3 -17 1z"/>
<path d="M1143 130 c0 -41 2 -61 4 -45 10 64 49 68 56 7 4 -30 4 -29 3 8 -1
41 -3 45 -26 45 -20 0 -26 6 -31 30 -4 18 -6 -1 -6 -45z"/>
<path d="M3070 130 c0 -40 4 -70 10 -70 6 0 10 30 10 70 0 40 -4 70 -10 70 -6
0 -10 -30 -10 -70z"/>
<path d="M3290 180 c0 -5 5 -10 10 -10 6 0 10 5 10 10 0 6 -4 10 -10 10 -5 0
-10 -4 -10 -10z"/>
<path d="M1072 154 c-7 -8 -8 -15 -2 -19 6 -3 10 -22 10 -41 0 -26 4 -34 18
-33 10 0 12 3 5 6 -15 5 -18 70 -4 75 5 2 4 8 -3 14 -8 8 -15 7 -24 -2z"/>
<path d="M3222 154 c-7 -8 -8 -14 -2 -14 5 0 10 -18 10 -40 0 -35 3 -40 23
-40 20 1 20 2 5 11 -10 5 -18 21 -18 34 0 13 8 29 18 34 15 9 15 10 0 11 -9 0
-18 4 -20 9 -1 5 -9 3 -16 -5z"/>
<path d="M1251 136 c-7 -8 -11 -27 -9 -43 2 -22 9 -29 32 -31 16 -2 33 1 38 6
7 7 -1 10 -22 9 -19 -1 -35 3 -37 11 -3 8 7 12 31 12 37 0 47 15 24 38 -16 16
-43 15 -57 -2z m57 -13 c2 -9 -7 -13 -28 -13 -28 0 -31 2 -20 15 15 18 41 16
48 -2z"/>
<path d="M1402 70 c0 -41 3 -60 5 -43 4 30 7 33 38 33 29 0 36 4 41 27 10 38
-7 58 -50 58 l-36 1 2 -76z m68 49 c13 -23 -1 -49 -26 -49 -24 0 -36 37 -18
54 21 21 31 20 44 -5z"/>
<path d="M1526 134 c-32 -32 -7 -78 39 -72 24 2 31 8 33 31 6 50 -38 75 -72
41z m54 -9 c19 -23 8 -50 -20 -50 -19 0 -26 6 -28 24 -5 35 26 53 48 26z"/>
<path d="M1620 144 c0 -4 5 -24 12 -45 12 -40 25 -50 33 -24 16 50 17 51 31
18 17 -40 30 -42 38 -5 4 15 9 35 13 46 3 11 1 16 -5 12 -5 -3 -13 -20 -17
-38 l-7 -33 -12 35 c-7 19 -16 35 -21 35 -5 0 -14 -16 -21 -35 l-12 -35 -7 33
c-7 28 -25 55 -25 36z"/>
<path d="M1776 134 c-19 -18 -20 -28 -6 -55 11 -19 70 -28 70 -11 0 4 -12 8
-27 7 -14 0 -28 6 -30 13 -3 8 7 12 31 12 37 0 47 15 24 38 -17 17 -44 15 -62
-4z m52 -11 c2 -8 -6 -13 -22 -13 -25 0 -33 10 -19 24 10 10 36 3 41 -11z"/>
<path d="M1875 141 c-10 -9 -5 -81 5 -81 6 0 10 16 10 35 0 24 5 35 15 35 8 0
15 4 15 9 0 10 -37 11 -45 2z"/>
<path d="M2005 126 c-23 -34 -6 -66 36 -66 36 0 54 34 34 65 -19 30 -51 31
-70 1z m55 -1 c19 -23 8 -50 -20 -50 -16 0 -26 6 -28 18 -4 18 14 47 28 47 4
0 13 -7 20 -15z"/>
<path d="M2236 134 c-19 -18 -21 -45 -4 -62 13 -13 68 -17 68 -4 0 4 -12 8
-27 7 -14 0 -28 6 -30 13 -3 8 7 12 31 12 39 0 41 2 26 31 -13 23 -43 25 -64
3z m52 -11 c2 -8 -6 -13 -22 -13 -25 0 -33 10 -19 24 10 10 36 3 41 -11z"/>
<path d="M2330 103 c0 -53 18 -57 22 -5 2 25 8 37 18 37 10 0 16 -12 18 -37 4
-46 22 -51 22 -5 0 45 -11 57 -48 54 -31 -2 -32 -4 -32 -44z"/>
<path d="M2446 134 c-19 -18 -20 -28 -6 -55 11 -19 70 -28 70 -11 0 4 -12 8
-27 7 -14 0 -28 6 -30 13 -3 8 7 12 31 12 37 0 47 15 24 38 -17 17 -44 15 -62
-4z m52 -11 c2 -8 -6 -13 -22 -13 -25 0 -33 10 -19 24 10 10 36 3 41 -11z"/>
<path d="M2540 104 c0 -24 5 -44 10 -44 6 0 10 16 10 35 0 24 5 35 15 35 8 0
15 4 15 9 0 5 -11 9 -25 9 -23 0 -25 -4 -25 -44z"/>
<path d="M2620 136 c-6 -8 -10 -27 -8 -43 2 -23 8 -29 36 -31 18 -2 32 -9 32
-17 0 -17 -22 -25 -51 -18 -15 4 -20 3 -15 -5 10 -17 52 -15 70 4 11 10 16 33
16 67 0 52 0 52 -34 54 -20 2 -39 -3 -46 -11z m48 -5 c20 -12 11 -56 -12 -56
-27 0 -43 29 -27 49 15 18 21 19 39 7z"/>
<path d="M2720 145 c0 -3 7 -22 15 -42 20 -47 19 -70 -2 -83 -17 -10 -17 -11
0 -8 12 2 27 24 43 62 13 33 24 64 24 69 0 17 -14 -3 -26 -36 l-11 -32 -16 38
c-14 32 -27 48 -27 32z"/>
<path d="M2877 143 c-14 -14 -6 -34 18 -43 14 -5 25 -15 25 -21 0 -7 -10 -9
-25 -7 -14 3 -25 1 -25 -3 0 -15 57 -10 63 5 6 16 -11 36 -31 36 -7 0 -12 6
-9 13 2 6 12 11 22 9 10 -2 14 1 10 7 -7 12 -38 15 -48 4z"/>
<path d="M2966 129 c-22 -32 -6 -63 33 -67 25 -3 33 2 43 22 9 22 8 29 -7 46
-23 26 -50 25 -69 -1z m54 -4 c19 -23 8 -50 -20 -50 -16 0 -26 6 -28 18 -4 18
14 47 28 47 4 0 13 -7 20 -15z"/>
<path d="M3121 107 l-1 -48 35 3 c35 2 35 2 34 48 l-2 45 -6 -40 c-5 -31 -10
-40 -26 -40 -16 0 -21 9 -26 40 l-6 40 -2 -48z"/>
<path d="M3293 105 c0 -27 2 -38 4 -22 2 15 2 37 0 50 -2 12 -4 0 -4 -28z"/>
<path d="M3342 138 c-28 -28 -7 -78 33 -78 27 0 45 18 45 45 0 27 -18 45 -45
45 -12 0 -26 -5 -33 -12z m59 -19 c15 -29 -12 -59 -38 -43 -24 15 -26 29 -8
48 22 21 32 20 46 -5z"/>
<path d="M3451 101 c2 -34 3 -38 6 -16 10 64 49 68 56 7 4 -30 4 -29 3 8 -1
44 -2 45 -33 46 -33 1 -33 1 -32 -45z"/>
<path d="M3557 143 c-14 -14 -6 -34 18 -45 28 -12 23 -32 -6 -25 -11 3 -19 1
-19 -5 0 -5 12 -8 27 -6 38 4 43 35 8 48 -30 11 -24 34 7 24 14 -4 18 -2 14 5
-8 12 -39 15 -49 4z"/>
</g>
</svg>
