    <svg
        xmlns="http://www.w3.org/2000/svg"
        class="mx-auto h-auto w-32 py-3 sm:mx-0 lg:w-40 lg:py-5"
        viewBox="0 0 1033.583 318.543">
        <title>
          Gardena logo
        </title>
      <g transform="translate(0.000000,289) scale(0.05,-0.045)"
      fill="#6B7280" stroke="none">
      
      <path d="M0 3315 l0 -3315 10310 0 10310 0 0 3315 0 3315 -10310 0 -10310 0 0
      -3315z m19815 2546 c48 -22 79 -54 100 -103 13 -33 15 -294 15 -2443 0 -2149
      -2 -2410 -15 -2443 -21 -49 -52 -81 -100 -103 -39 -18 -324 -19 -9505 -19
      -9181 0 -9466 1 -9505 19 -48 22 -79 54 -100 103 -13 33 -15 294 -15 2443 0
      2149 2 2410 15 2443 21 49 52 81 100 103 39 18 324 19 9505 19 9181 0 9466 -1
      9505 -19z"/>
      <path d="M3870 4970 c-274 -35 -504 -210 -617 -469 -17 -42 -31 -77 -29 -79 2
      -1 39 6 83 17 178 46 347 49 531 11 l87 -18 72 45 c127 79 351 143 500 143 34
      0 46 5 59 25 15 23 15 27 -5 59 -28 44 -138 134 -221 179 -128 70 -313 105
      -460 87z"/>
      <path d="M3071 4959 c-155 -30 -281 -98 -396 -214 -50 -49 -105 -116 -124
      -147 -134 -229 -146 -486 -35 -737 l25 -56 39 73 c22 39 58 98 81 129 62 85
      205 221 287 273 61 39 72 50 77 80 14 79 69 233 113 309 25 45 74 116 109 158
      66 79 74 101 47 127 -17 18 -144 21 -223 5z"/>
      <path d="M4305 4432 c-38 -10 -98 -31 -133 -47 l-63 -28 62 -34 c147 -82 297
      -221 393 -366 43 -65 65 -88 84 -93 162 -33 336 -119 468 -231 40 -35 82 -63
      93 -63 40 0 54 42 48 139 -14 215 -92 387 -238 526 -77 73 -104 93 -188 135
      -112 57 -173 71 -321 76 -107 3 -149 0 -205 -14z"/>
      <path d="M6437 4300 c-387 -65 -662 -356 -738 -780 -20 -109 -17 -374 5 -484
      57 -292 218 -518 451 -631 123 -59 208 -77 380 -76 164 0 256 17 361 67 90 42
      162 106 202 181 28 52 31 55 32 29 0 -16 12 -78 26 -138 l26 -108 129 0 129 0
      0 530 0 530 -415 0 -415 0 0 -175 0 -175 235 0 236 0 -7 -37 c-10 -58 -73
      -170 -123 -222 -89 -91 -192 -131 -336 -131 -251 0 -416 134 -486 395 -31 114
      -32 365 -1 476 73 268 269 415 530 396 159 -11 266 -77 328 -202 l38 -76 45 5
      c25 3 117 8 203 12 l158 6 -6 27 c-12 48 -65 169 -102 230 -103 170 -297 301
      -514 345 -82 17 -285 20 -371 6z"/>
      <path d="M3475 4260 c-102 -14 -186 -40 -284 -86 -258 -122 -444 -345 -519
      -623 -22 -82 -25 -117 -25 -241 0 -124 3 -159 25 -241 75 -278 260 -501 520
      -624 138 -65 244 -88 403 -88 146 0 228 15 356 64 149 57 325 196 425 334 50
      69 118 214 146 310 20 70 23 101 22 250 0 155 -3 178 -27 258 -31 99 -88 218
      -141 292 -133 186 -358 334 -576 381 -84 18 -248 25 -325 14z"/>
      <path d="M7811 3328 c-173 -519 -316 -949 -319 -955 -3 -10 46 -13 226 -13
      l231 0 25 83 c14 45 40 132 59 192 l34 110 321 3 321 2 30 -97 c16 -54 42
      -141 58 -193 l29 -95 232 -3 c128 -1 232 1 232 4 0 4 -140 434 -312 956 l-312
      948 -271 0 -270 0 -314 -942z m687 160 c56 -203 102 -375 102 -383 0 -13 -30
      -15 -216 -15 -201 0 -216 1 -212 18 56 211 215 759 219 754 3 -4 52 -172 107
      -374z"/>
      <path d="M9362 3318 l3 -953 213 -3 212 -2 0 386 0 387 188 -6 c217 -6 267
      -17 334 -77 80 -70 90 -109 117 -471 10 -132 31 -199 66 -213 20 -7 425 -8
      425 -1 0 3 -9 18 -20 33 -34 45 -49 127 -60 312 -13 215 -26 326 -46 382 -32
      91 -100 159 -192 190 l-43 15 75 36 c162 80 246 229 246 436 0 126 -41 236
      -124 328 -59 66 -127 109 -224 141 l-77 27 -548 3 -547 3 2 -953z m991 564
      c70 -35 102 -94 102 -187 -1 -104 -43 -174 -127 -210 -30 -12 -84 -15 -288
      -15 l-250 0 0 221 0 220 258 -3 c246 -3 259 -4 305 -26z"/>
      <path d="M11100 3315 l0 -955 353 0 c524 1 663 17 822 95 152 75 264 194 350
      370 181 373 147 842 -82 1142 -89 117 -206 201 -345 248 -144 47 -236 55 -685
      55 l-413 0 0 -955z m933 556 c118 -46 213 -173 254 -337 24 -98 24 -342 -1
      -439 -41 -158 -117 -263 -229 -315 -84 -39 -161 -50 -359 -50 l-168 0 0 586 0
      586 223 -4 c202 -4 227 -6 280 -27z"/>
      <path d="M12890 3315 l0 -955 720 0 720 0 0 185 0 185 -505 0 -505 0 0 235 0
      235 435 0 435 0 0 170 0 170 -435 0 -435 0 0 185 0 185 495 0 495 0 0 180 0
      180 -710 0 -710 0 0 -955z"/>
      <path d="M14492 3318 l3 -953 199 -3 199 -2 -6 682 -5 683 28 -65 c48 -111
      121 -248 418 -782 l287 -518 218 0 217 0 0 955 0 955 -196 0 -195 0 3 -672 3
      -673 -62 127 c-34 70 -197 373 -363 673 l-302 545 -224 0 -224 0 2 -952z"/>
      <path d="M16426 3323 c-174 -522 -316 -951 -316 -956 0 -4 102 -7 228 -7 l227
      0 60 195 59 195 321 0 321 0 59 -195 58 -195 233 0 c129 0 234 1 234 3 0 1
      -141 430 -313 952 l-313 950 -271 3 -271 2 -316 -947z m689 163 c58 -208 105
      -382 105 -387 0 -5 -90 -9 -215 -9 -156 0 -215 3 -215 12 0 6 47 179 105 384
      58 205 105 376 105 380 0 27 22 -46 115 -380z"/>
      <path d="M17605 4256 c-55 -21 -111 -85 -124 -144 -18 -86 14 -165 88 -217 37
      -26 51 -30 111 -30 60 0 74 4 112 30 61 43 88 95 88 170 0 74 -27 127 -86 168
      -50 35 -129 44 -189 23z m165 -44 c150 -111 56 -352 -125 -318 -66 13 -134 97
      -135 169 0 61 48 137 105 163 39 18 121 11 155 -14z"/>
      <path d="M17600 4070 c0 -113 1 -120 20 -120 17 0 20 7 20 50 0 67 24 67 68 0
      21 -33 39 -50 53 -50 19 0 18 3 -11 45 l-31 46 31 29 c27 25 31 35 25 58 -3
      15 -10 31 -14 35 -12 12 -79 26 -123 27 l-38 0 0 -120z m135 60 c10 -31 -12
      -50 -56 -50 -38 0 -39 1 -39 35 0 35 0 35 44 35 36 0 46 -4 51 -20z"/>
      <path d="M2148 4202 c-238 -249 -281 -627 -106 -927 63 -108 192 -230 303
      -287 50 -25 106 -50 126 -56 l35 -9 -22 77 c-36 122 -47 229 -41 369 3 69 13
      155 21 191 l14 65 -35 53 c-84 128 -145 308 -158 472 -8 95 -16 110 -55 110
      -20 0 -41 -15 -82 -58z"/>
      <path d="M4720 3621 c46 -172 51 -385 15 -557 l-17 -81 37 -57 c80 -125 133
      -292 142 -450 6 -104 21 -136 60 -136 26 0 146 130 193 209 23 39 56 112 73
      163 28 85 31 104 31 228 0 148 -13 213 -64 326 -86 191 -274 359 -466 418
      l-22 7 18 -70z"/>
      <path d="M1952 3018 c-19 -19 -15 -172 7 -263 67 -275 262 -480 541 -566 63
      -20 97 -24 210 -24 145 0 226 18 333 72 l48 24 -82 49 c-45 28 -106 69 -136
      91 -75 58 -193 186 -248 269 -34 51 -54 72 -73 75 -75 15 -154 40 -221 67 -86
      36 -230 129 -280 182 -36 37 -76 47 -99 24z"/>
      <path d="M4620 2743 c-71 -135 -232 -307 -374 -401 l-79 -51 -22 -88 c-13 -48
      -37 -119 -54 -157 -40 -88 -127 -219 -180 -271 -32 -30 -41 -47 -41 -72 0 -42
      21 -53 103 -53 347 0 659 241 749 579 26 99 29 276 4 375 -17 71 -64 186 -75
      186 -3 0 -17 -21 -31 -47z"/>
      <path d="M3885 2179 c-166 -44 -384 -46 -547 -4 l-58 16 -46 -32 c-118 -81
      -304 -141 -474 -154 -52 -4 -101 -12 -107 -17 -30 -24 -14 -64 50 -125 105
      -101 222 -165 365 -200 97 -23 266 -20 365 6 152 40 307 141 407 264 46 56
      118 188 135 245 8 26 6 26 -90 1z"/>
      </g>
    </svg>