      <svg xmlns="http://www.w3.org/2000/svg" 
      class="mx-auto h-auto w-32 py-3 sm:mx-0 lg:w-40 lg:py-5" 
      viewBox="0 0 315 110">
      <title>
        Geda logo
      </title>
        <g fill="#6B7280" stroke="none" transform="scale(0.9,0.9)">
          <path  d="M297.063,10.278c4.815-1.388,10.267,2.611,10.131,7.682c0.185,5.117-5.387,9.3-10.25,7.761  c-4.197-1.039-7.148-5.824-5.698-10.013C292.086,13.064,294.341,10.899,297.063,10.278 M296.324,11.946  c-4.184,1.706-5.311,7.855-1.852,10.838c3.396,3.491,10.067,1.61,11.037-3.197C307.091,14.517,301.036,9.509,296.324,11.946z"/>
          <path  d="M12.818,13.407c21.566-0.018,43.142-0.025,64.708,0c-0.04,3.744-0.016,7.489-0.031,11.227  c-16.251-0.039-32.501,0-48.752-0.016c-0.016,10.078,0.119,20.155-0.071,30.226c10.935,0.086,21.868,0.03,32.796,0.03  c0.039-7.069-0.168-14.147,0.103-21.209c5.261,0.158,10.529,0.041,15.798,0.072c0.118,10.774-0.008,21.559,0.175,32.333  c-21.567,0.078-43.142,0-64.709,0.039C12.843,48.542,12.865,30.973,12.818,13.407z"/>
          <path  d="M89.493,13.381c21.591,0.018,43.182,0.008,64.771,0.008c0.008,3.746,0,7.484,0,11.229  c-16.291,0.063-32.588-0.119-48.888,0.088c0.079,3.008,0.063,6.014,0.048,9.021c16.275,0.033,32.548,0,48.832,0.011  c0.016,3.783,0.008,7.576,0,11.361c-16.274,0-32.549-0.023-48.825,0.009c0.009,3.253,0.009,6.505-0.015,9.767  c16.291,0.049,32.59-0.029,48.879,0.033c-0.047,3.713-0.063,7.428,0.008,11.141c-21.615,0.104-43.236,0.07-64.858,0.023  C89.532,48.502,89.453,30.941,89.493,13.381z"/>
          <path  d="M166.033,13.413c18.217-0.055,36.438-0.006,54.654-0.023c5.135-0.348,10.447,4,10.146,9.348  c0,11.396,0.012,22.797,0,34.199c0.154,3.635-2.466,6.897-5.693,8.299c-2.39,1.111-5.086,0.85-7.644,0.873  c-17.146-0.023-34.302,0.008-51.447-0.008C166.072,48.542,166.111,30.973,166.033,13.413 M181.546,24.681  c0.103,10.067,0.041,20.13,0.031,30.19c11.006,0.017,22.002,0.017,33,0c-0.017-10.068-0.054-20.138,0.022-30.207  C203.579,24.593,192.564,24.569,181.546,24.681z"/>
          <path  d="M263.514,13.368c6.301,0.063,12.605-0.009,18.907,0.045c7.517,12.942,15.222,25.789,22.634,38.778  c0.299,4.619,0.045,9.261,0.18,13.886c-12.194,0.055-24.385,0-36.578,0.032c0.018-3.737,0.046-7.476-0.032-11.204  c6.429-0.063,12.854,0.029,19.289-0.057c-5.015-8.157-9.696-16.52-14.554-24.781c-0.166-0.031-0.482-0.111-0.648-0.15  c-7.087,12.062-14.027,24.209-21.211,36.223c-6.275-0.104-12.551,0.019-18.83-0.063C243.041,48.557,253.173,30.902,263.514,13.368z"/>
          <path  d="M295.831,13.389c2.2,0.191,5.349-0.88,6.696,1.492c1.048,1.834-0.635,3.3-2.104,4.104  c0.887,1.236,1.814,2.491,2.166,4.008c-2.578-0.494-2.515-4.43-5.324-4.279c-0.018,1.398-0.021,2.795-0.047,4.191l-1.326-0.422  C295.648,19.461,295.831,16.42,295.831,13.389 M297.211,14.762c0.023,0.921,0.05,1.85,0.063,2.777c1.438,0,4.658,0.223,3.978-2.11  C300.116,14.446,298.568,14.834,297.211,14.762z"/>
          <path  d="M12.802,81.32c97.258-0.018,194.519-0.018,291.765,0c-0.069,9.554-0.03,19.105-0.016,28.662  c-97.242,0.023-194.492,0.023-291.732,0C12.849,100.428,12.873,90.874,12.802,81.32 M38.447,88.23  c-6.855,2.508-6.594,14.181,0.596,16.066c5.389,1.984,11.418-2.846,10.705-8.533C49.914,90.104,43.613,85.915,38.447,88.23   M72.266,88.081c-0.095,5.39-0.016,10.782-0.041,16.181c1.215,0,2.429,0.006,3.644,0.016c-0.009-2.129-0.024-4.262-0.04-6.389  c1.769,0.008,3.547,0.049,5.323,0.08c1.5,1.707,1.246,4.049,1.477,6.149c1.223,0.088,2.453,0.174,3.682,0.245  c-0.579-2.688,0.032-6.213-2.754-7.815c3.627-1.481,3.088-7.155-0.563-8.188C79.463,87.771,75.836,88.247,72.266,88.081   M109.053,88.104c0.063,5.388,0.047,10.773,0.007,16.162c1.19,0,2.381,0,3.579,0c-0.031-5.389-0.063-10.774,0.016-16.162  C111.456,88.098,110.25,88.098,109.053,88.104 M140.069,88.288c-5.508,2.135-6.546,10.394-2.342,14.269  c2.724,2.664,7.531,2.928,10.166-0.011c0.143,1.58,1.048,2.166,2.714,1.765c-0.041-2.929-0.048-5.863-0.024-8.795  c-2.34,0-4.688,0.01-7.029,0.01c0,0.637,0.008,1.904,0.008,2.539c1.277-0.01,2.563-0.01,3.85,0  c-0.184,2.928-3.374,4.451-5.928,3.326c-3.896-2.088-3.682-9.127,0.595-10.658c2.095-0.668,4.157,0.61,4.903,2.572  c1.167,0.014,2.342,0.014,3.507,0.014C149.655,88.708,144.156,86.398,140.069,88.288 M173.523,88.098  c0.095,5.409-0.032,10.821,0.072,16.239c1.203-0.039,2.408-0.077,3.615-0.103c0.01-5.36-0.063-10.719,0.038-16.073  C176.007,88.13,174.762,88.098,173.523,88.098 M200.376,88.12c0.056,5.381,0.036,10.76,0.008,16.146c1.125,0,2.246,0.01,3.371,0.01  c0-3.643-0.057-7.291-0.008-10.94c2.459,3.567,4.696,7.293,7.017,10.957c1.235-0.024,2.48-0.069,3.729-0.135  c-0.098-5.341-0.039-10.683-0.034-16.021c-1.167-0.02-2.321-0.033-3.483-0.051c-0.016,3.625,0.058,7.246,0.01,10.871  c-2.457-3.563-4.603-7.33-7.045-10.898C202.746,88.081,201.559,88.098,200.376,88.12 M242.175,88.089  c-2.134,5.382-4.134,10.815-6.325,16.179c1.227,0,2.455,0,3.686-0.006c0.42-1.183,0.824-2.367,1.247-3.539  c2.067-0.033,4.142-0.033,6.219-0.08c0.47,1.223,0.938,2.442,1.403,3.674c1.24-0.029,2.484-0.055,3.725-0.094  c-2.184-5.332-4.158-10.734-6.225-16.107C244.66,88.098,243.415,88.089,242.175,88.089 M273.511,88.111  c0.087,5.39,0.023,10.783,0.041,16.173c3.927-0.039,7.86-0.022,11.798,0c-0.009-0.685-0.024-2.05-0.029-2.729  c-2.646-0.652-5.373-0.104-8.057-0.088c-0.128-4.443-0.078-8.887-0.021-13.33C275.995,88.12,274.747,88.111,273.511,88.111z"/>
          <path  d="M39.264,91.271c2.729-1.961,6.777,0.4,6.714,3.683c0.674,2.998-0.977,7.149-4.611,6.752  C36.361,101.477,35.575,93.762,39.264,91.271z"/>
          <path  d="M75.853,90.73c2.063,0.224,4.507-0.563,6.243,0.879c0.556,1.226,0.54,3.104-0.944,3.652  c-1.762,0.252-3.539,0.156-5.308,0.182C75.845,93.874,75.845,92.303,75.853,90.73z"/>
          <path  d="M241.747,97.997c0.745-1.908,1.196-3.972,2.362-5.688c0.693,1.881,1.344,3.771,2.047,5.644  C244.682,97.977,243.216,97.982,241.747,97.997z"/>
        </g>
      </svg>