    <svg 
    xmlns="http://www.w3.org/2000/svg" 
    class="mx-auto h-auto w-32 py-3 sm:mx-0 lg:w-40 lg:py-5" 
    viewBox="0 0 300.000000 122.000000" 
    preserveAspectRatio="xMidYMid meet">
    <title>
      limge logo
    </title>
    <g transform="translate(0.000000,122.000000) scale(0.100000,-0.100000)" fill="#6B7280" stroke="none">
      <path d="M770 1098 c-108 -192 -250 -395 -399 -571 l-79 -95 101 85 c381 319 677 423 728 254 8 -27 8 -52 1 -84 -14 -67 2 -49 23 25 40 141 36 265 -10 345 -47 79 -151 133 -260 133 l-52 0 -53 -92z"/>
      <path d="M424 992 c-86 -64 -202 -181 -253 -255 -44 -64 -97 -180 -116 -252 -15 -58 -23 -220 -11 -232 9 -9 76 41 133 99 147 151 270 391 318 623 8 38 13 71 11 72 -2 2 -39 -23 -82 -55z"/>
      <path d="M1833 623 l-723 -3 -15 -38 c-9 -20 -41 -70 -72 -110 -77 -101 -96 -165 -77 -261 l7 -31 943 0 943 0 20 68 c64 216 101 352 101 366 0 14 -24 16 -202 14 -112 -2 -528 -4 -925 -5z m-413 -96 c0 -8 -11 -47 -25 -87 -14 -40 -25 -77 -25 -81 0 -5 27 -11 60 -15 33 -4 60 -10 60 -14 0 -4 -5 -21 -11 -39 l-11 -31 -119 0 c-65 0 -119 4 -119 8 0 6 68 214 85 260 6 17 105 17 105 -1z m278 1 c-3 -7 -24 -70 -47 -140 l-43 -128 -55 0 c-44 0 -54 3 -50 15 4 8 23 67 43 132 20 65 38 121 41 126 2 4 29 7 60 7 40 0 54 -3 51 -12z m200 -58 c-2 -38 -3 -70 -1 -70 1 0 21 32 43 70 l41 70 80 0 c79 0 80 0 73 -22 -4 -13 -23 -75 -43 -138 l-37 -115 -51 -3 -51 -3 28 93 c16 50 28 93 26 95 -1 1 -27 -40 -57 -92 l-54 -95 -48 0 -48 0 6 78 c3 42 9 88 11 102 11 53 -13 1 -41 -87 l-29 -93 -49 0 c-35 0 -48 4 -45 12 3 7 24 70 47 141 l43 127 80 0 80 0 -4 -70z m538 58 c3 -4 2 -19 -3 -35 -9 -27 -12 -28 -64 -25 -66 4 -118 -25 -132 -75 -13 -44 -3 -63 33 -63 29 0 42 14 19 22 -7 2 -9 13 -5 26 7 19 14 22 67 22 32 0 59 -3 59 -7 0 -6 -32 -115 -36 -121 -6 -10 -127 -19 -163 -12 -88 16 -117 89 -68 174 42 74 114 108 219 103 37 -1 70 -6 74 -9z m304 -2 c0 -3 -4 -16 -10 -30 -9 -24 -14 -26 -79 -26 -60 0 -69 -2 -74 -20 -5 -18 0 -20 59 -20 67 0 70 -3 54 -44 -8 -23 -15 -25 -76 -28 -43 -2 -69 -8 -72 -15 -3 -10 14 -13 61 -13 35 0 66 -3 70 -6 3 -3 1 -19 -5 -35 l-10 -29 -125 0 c-96 0 -124 3 -121 13 3 6 22 67 43 135 l39 122 123 0 c68 0 123 -2 123 -4z"/>
      <path d="M775 604 c-211 -44 -413 -160 -618 -354 l-88 -83 43 -44 c104 -106 295 -113 497 -17 193 91 336 243 357 381 14 89 -72 141 -191 117z"/>
      </g>
    </svg>