<svg xmlns="http://www.w3.org/2000/svg" 
class="mx-auto h-auto w-32 py-3 sm:mx-0 lg:w-40 lg:py-5" 
 viewBox="0 0 284.000000 117.000000"
 preserveAspectRatio="xMidYMid meet">
<title>
linz logo
</title>
<g transform="translate(0.000000,117.000000) scale(0.100000,-0.100000)"
fill="#6B7280" stroke="none">
<path d="M2761 1156 c-7 -8 -11 -27 -9 -43 2 -22 9 -29 31 -31 50 -6 75 38 41
72 -19 20 -48 20 -63 2z m60 -12 c17 -21 0 -49 -32 -49 -20 0 -24 6 -26 30
l-2 30 9 -30 c4 -16 8 -24 9 -16 1 10 4 11 14 3 10 -8 13 -5 15 13 1 15 -5 25
-16 28 -14 4 -15 5 -1 6 9 0 22 -6 30 -15z"/>
<path d="M250 808 c-46 -90 -114 -220 -151 -290 l-67 -128 273 0 273 0 36 69
c20 38 36 72 36 75 0 3 -52 6 -115 6 -63 0 -115 3 -115 6 0 4 47 99 105 212
58 113 105 207 105 209 0 1 -66 3 -148 3 l-147 0 -85 -162z"/>
<path d="M835 689 c-83 -154 -152 -285 -153 -290 -3 -6 52 -8 143 -7 l148 3
152 288 153 287 -147 0 -147 0 -149 -281z"/>
<path d="M1232 685 c-84 -157 -152 -288 -152 -290 0 -3 66 -5 148 -5 l147 0
49 95 49 96 30 -96 31 -95 131 0 131 0 33 68 c18 37 84 165 147 284 63 120
114 220 114 223 0 3 -71 4 -157 3 l-157 -3 -54 -95 c-29 -52 -57 -99 -61 -103
-5 -5 -16 22 -25 60 -9 37 -21 85 -27 106 l-10 37 -107 0 -108 0 -152 -285z"/>
<path d="M2272 963 l-102 -4 -30 -59 c-17 -33 -30 -62 -30 -65 0 -3 57 -5 128
-5 l127 0 -80 -78 c-44 -43 -147 -142 -230 -220 l-150 -142 326 0 327 0 36 70
37 70 -118 0 -118 0 220 220 220 220 -230 -2 c-127 -1 -276 -4 -333 -5z"/>
<path d="M1192 235 l-22 -45 75 0 c43 0 75 4 75 10 0 6 -25 10 -55 10 l-56 0
16 30 c18 35 19 40 2 40 -7 0 -23 -20 -35 -45z"/>
<path d="M1594 257 c-20 -18 -25 -29 -20 -45 7 -20 14 -22 77 -22 39 0 69 4
69 10 0 6 -26 10 -59 10 -33 0 -62 4 -65 8 -12 20 15 31 83 34 48 2 76 7 79
16 3 9 -15 12 -67 12 -59 0 -74 -4 -97 -23z"/>
<path d="M1992 235 c-18 -37 -19 -45 -7 -45 9 0 18 7 21 15 4 10 20 15 45 15
26 0 42 -5 45 -15 4 -8 12 -15 20 -15 8 0 14 7 14 15 0 8 4 15 10 15 5 0 14
10 21 21 16 30 -2 39 -82 39 l-65 0 -22 -45z m148 15 c0 -5 -25 -10 -56 -10
-34 0 -53 4 -49 10 3 6 28 10 56 10 27 0 49 -4 49 -10z"/>
<path d="M2340 267 c-18 -9 -25 -21 -25 -42 0 -30 0 -30 64 -33 36 -2 69 2 74
7 8 8 -9 11 -57 11 -59 0 -67 2 -64 18 3 14 17 18 77 22 47 3 76 10 79 18 5
17 -114 16 -148 -1z"/>
<path d="M990 230 l-20 -40 69 0 c86 0 107 19 24 22 l-58 2 55 3 c82 5 94 16
25 23 l-60 7 57 1 c85 3 84 22 -1 22 l-71 0 -20 -40z"/>
<path d="M1380 230 l-20 -40 69 0 c86 0 107 19 24 22 l-58 2 55 3 c82 5 94 16
25 23 l-60 7 57 1 c85 3 84 22 -1 22 l-71 0 -20 -40z"/>
<path d="M1823 263 c32 -5 32 -5 12 -43 -23 -45 7 -40 33 4 17 28 28 35 59 39
21 2 0 4 -47 4 -47 0 -73 -2 -57 -4z"/>
<path d="M2213 230 c-19 -36 -20 -40 -4 -40 10 0 24 15 34 35 20 43 21 45 5
45 -7 0 -23 -18 -35 -40z"/>
<path d="M1795 79 c-159 -4 -504 -12 -765 -19 -261 -6 -476 -13 -477 -14 -1
-1 251 -8 560 -15 309 -6 713 -16 897 -21 184 -5 337 -6 341 -2 3 4 16 24 28
45 l23 37 -159 -2 c-87 -1 -288 -5 -448 -9z"/>
</g>
</svg>
