
<svg version="1.0" xmlns="http://www.w3.org/2000/svg"
 viewBox="0 0 1100.000000 350.000000"
 preserveAspectRatio="xMidYMid meet">

<g transform="translate(-256.000000,545.000000) scale(0.190000,-0.230000)"
fill="#6B7280" stroke="none">
<path d="M2045 2148 c-3 -7 -23 -76 -45 -153 -23 -77 -42 -141 -44 -142 -1 -2
-18 16 -36 38 l-33 41 -142 -4 c-136 -4 -146 -6 -208 -36 -72 -36 -122 -86
-159 -161 -22 -45 -23 -53 -23 -346 0 -286 1 -302 22 -347 30 -66 96 -133 162
-165 l56 -28 2395 0 2395 0 47 22 c66 30 133 96 165 162 l28 56 0 300 c0 293
-1 301 -23 346 -37 75 -87 125 -160 161 l-67 33 -722 3 -722 3 -23 -41 c-22
-38 -38 -51 -38 -31 0 5 -23 75 -51 155 l-51 146 -57 0 -58 0 -73 -160 c-79
-173 -78 -173 -121 -104 l-21 34 -911 0 -912 0 -29 -45 c-15 -25 -30 -44 -32
-42 -2 2 -30 73 -62 158 l-58 154 -41 3 -41 3 -30 -78 c-16 -43 -39 -106 -52
-140 -12 -35 -26 -63 -30 -63 -3 0 -31 62 -61 138 l-55 137 -37 3 c-24 2 -39
-1 -42 -10z m2716 -273 l53 -145 51 0 50 0 35 60 35 60 690 -2 690 -3 53 -29
c28 -16 64 -44 78 -63 51 -68 55 -98 52 -390 l-3 -268 -28 -47 c-31 -53 -79
-94 -134 -114 -56 -20 -4730 -20 -4786 0 -55 20 -103 61 -134 114 l-28 47 -3
268 c-3 292 1 322 52 390 14 19 50 47 78 63 48 26 64 29 169 32 l116 4 47 -61
c38 -49 53 -61 75 -61 27 0 30 5 72 125 24 69 46 125 50 125 3 0 26 -55 51
-122 l44 -123 51 -3 c41 -2 52 0 58 15 3 10 25 68 47 128 22 61 43 113 47 117
4 4 31 -53 61 -128 l54 -135 40 3 c37 3 44 8 80 61 l40 57 866 0 865 0 33 -60
33 -60 48 0 48 0 74 145 c41 79 74 145 75 145 1 0 25 -65 55 -145z"/>
<path d="M5087 1624 c-4 -4 -7 -112 -7 -241 l0 -233 80 0 80 0 -2 238 -3 237
-70 3 c-39 1 -74 0 -78 -4z"/>
<path d="M5340 1550 c0 -49 -1 -50 -30 -50 -28 0 -30 -3 -30 -35 0 -32 2 -35
30 -35 l30 0 0 -100 c0 -164 25 -194 156 -188 l69 3 3 38 c3 35 2 37 -25 37
-46 0 -53 15 -53 117 l0 93 40 0 c39 0 40 1 40 35 0 34 -1 35 -40 35 l-40 0 0
50 0 50 -75 0 -75 0 0 -50z"/>
<path d="M2308 1487 c-45 -23 -48 -23 -48 -6 0 17 -8 19 -70 19 l-70 0 0 -175
0 -175 70 0 70 0 0 99 c0 99 10 149 33 163 7 4 26 8 44 8 52 0 63 -26 63 -157
l0 -113 65 0 65 0 0 113 c0 134 10 157 69 157 20 0 42 -5 49 -12 8 -8 12 -53
12 -135 l0 -123 76 0 76 0 -4 144 c-3 136 -4 146 -27 170 -13 14 -40 31 -59
37 -46 15 -130 5 -165 -21 l-28 -21 -30 21 c-19 14 -51 24 -87 27 -47 4 -65 0
-104 -20z"/>
<path d="M2977 1495 c-91 -32 -137 -119 -115 -218 11 -52 46 -93 102 -118 56
-25 185 -26 241 0 39 17 95 72 95 92 0 5 -29 9 -65 9 -52 0 -69 -4 -85 -20
-41 -41 -140 -16 -140 36 l0 24 150 0 150 0 0 33 c0 59 -40 118 -99 149 -44
23 -66 28 -125 28 -39 -1 -88 -7 -109 -15z m173 -85 c40 -40 28 -50 -65 -50
-47 0 -85 4 -85 9 0 4 9 20 21 35 27 34 98 37 129 6z"/>
<path d="M3459 1482 c-71 -37 -102 -93 -97 -174 8 -111 83 -167 223 -168 96 0
156 25 192 79 37 55 32 61 -46 61 -62 0 -70 -2 -85 -25 -13 -20 -25 -25 -56
-25 -42 0 -67 18 -76 56 -9 35 2 93 22 115 24 27 90 26 106 -1 11 -17 24 -20
85 -20 79 0 82 3 57 51 -40 78 -220 106 -325 51z"/>
<path d="M3975 1495 c-60 -21 -112 -82 -120 -140 -14 -87 22 -157 98 -194 58
-28 183 -29 242 -2 46 21 95 73 95 102 0 17 -8 19 -66 19 -59 0 -68 -3 -86
-25 -26 -33 -86 -35 -114 -4 -26 29 -26 120 1 149 25 28 90 28 107 0 11 -17
24 -20 85 -20 52 0 73 4 73 13 0 26 -40 75 -76 92 -51 25 -183 31 -239 10z"/>
<path d="M4695 1496 c-50 -14 -105 -62 -105 -91 0 -25 124 -21 150 5 33 33
120 25 120 -10 0 -22 -11 -26 -116 -44 -43 -8 -90 -19 -104 -24 -68 -26 -87
-109 -37 -159 24 -24 37 -28 100 -31 68 -4 94 2 160 36 4 2 7 -3 7 -12 0 -13
14 -16 81 -16 74 0 80 1 68 16 -9 11 -15 59 -19 144 -5 137 -10 149 -64 177
-41 21 -178 27 -241 9z m165 -215 c0 -16 -7 -37 -16 -45 -32 -32 -99 -34 -118
-3 -17 27 5 51 60 64 72 17 74 16 74 -16z"/>
<path d="M5748 1500 c-85 -26 -138 -92 -138 -175 0 -59 19 -104 59 -138 41
-34 89 -47 182 -47 63 0 85 5 130 28 33 17 61 39 72 60 l19 32 -71 0 c-58 0
-75 -4 -91 -20 -30 -30 -94 -27 -126 5 -45 45 -31 50 141 53 l157 3 -6 40
c-13 79 -58 132 -135 158 -39 13 -152 13 -193 1z m162 -90 c40 -40 28 -50 -65
-50 -92 0 -101 7 -63 47 29 31 99 32 128 3z"/>
</g>
</svg>
