    <svg 
    xmlns="http://www.w3.org/2000/svg"
    class="mx-auto h-auto w-32 py-3 sm:mx-0 lg:w-40 lg:py-5"
    viewBox="0 0 300 122">
      <style type="text/css">
        .st0{fill:#6B7280;}
        .st1{fill:#6B7280;}
        .st2{fill:#262626;}
      </style>
      <title>
        Norton saint gobain logo
      </title>
      <path class="st0" d="M94.2,111.7c-1.8-0.5-2.6-0.9-2.6-1.9c0-0.9,1.2-1.2,2.2-1.2c0.9,0,1.8,0.2,2.5,0.7c0.1,0.1,0.2,0.1,0.3,0.1  s0.2,0,0.3,0c0.1,0,0.2-0.1,0.2-0.1c0.1-0.1,0.1-0.1,0.2-0.2l0.3-0.6c0.1-0.1,0.1-0.3,0-0.5c0-0.2-0.1-0.3-0.3-0.4  c-1.1-0.7-2.3-1-3.5-1c-2.6,0-4.3,1.3-4.3,3.3c0,2.6,2.2,3.2,3.9,3.7c1.7,0.5,2.6,0.9,2.6,2c0,1.1-1.3,1.5-2.5,1.5  c-1.2-0.1-2.3-0.5-3.1-1.3c-0.1-0.1-0.2-0.1-0.2-0.2c-0.1,0-0.2,0-0.3,0c-0.1,0-0.2,0-0.3,0.1c-0.1,0.1-0.2,0.1-0.2,0.2l-0.4,0.6  c-0.1,0.1-0.1,0.3-0.1,0.4c0,0.1,0.1,0.3,0.2,0.4c1.2,1.1,2.8,1.8,4.4,1.8c2.7,0,4.5-1.4,4.5-3.5C98.1,112.9,95.9,112.2,94.2,111.7"/>
      <path class="st0" d="M106,106.9c-0.1-0.1-0.1-0.2-0.2-0.3c-0.1-0.1-0.2-0.1-0.4-0.1h-0.7c-0.1,0-0.2,0-0.4,0.1  c-0.1,0.1-0.2,0.2-0.2,0.3l-5,11.1c0,0.1-0.1,0.2-0.1,0.3c0,0.1,0,0.2,0.1,0.3c0.1,0.1,0.1,0.2,0.2,0.2c0.1,0.1,0.2,0.1,0.3,0.1h0.7  c0.1,0,0.2,0,0.4-0.1c0.1-0.1,0.2-0.2,0.2-0.3l1.3-2.8h5.6l1.3,2.8c0.1,0.1,0.1,0.2,0.2,0.3c0.1,0.1,0.2,0.1,0.4,0.1h0.7  c0.1,0,0.2,0,0.3-0.1c0.1-0.1,0.2-0.1,0.2-0.2c0.1-0.1,0.1-0.2,0.1-0.3c0-0.1,0-0.2-0.1-0.3L106,106.9z M103.2,113.8l1.9-4.3  l1.9,4.3H103.2z"/>
      <path class="st0" d="M114.4,106.5h-0.7c-0.2,0-0.3,0.1-0.5,0.2c-0.1,0.1-0.2,0.3-0.2,0.5v11.1c0,0.2,0.1,0.3,0.2,0.5  c0.1,0.1,0.3,0.2,0.5,0.2h0.7c0.2,0,0.3-0.1,0.5-0.2c0.1-0.1,0.2-0.3,0.2-0.5v-11.1c0-0.2-0.1-0.3-0.2-0.5  C114.7,106.6,114.6,106.5,114.4,106.5z"/>
      <path class="st0" d="M128.2,106.5h-0.6c-0.2,0-0.3,0.1-0.5,0.2c-0.1,0.1-0.2,0.3-0.2,0.5v8.1l-6.2-8.5c-0.1-0.1-0.1-0.2-0.2-0.2  c-0.1,0-0.2-0.1-0.3-0.1h-0.8c-0.2,0-0.3,0.1-0.5,0.2c-0.1,0.1-0.2,0.3-0.2,0.5v11.1c0,0.1,0,0.2,0,0.3c0,0.1,0.1,0.2,0.1,0.2  c0.1,0.1,0.1,0.1,0.2,0.1c0.1,0,0.2,0.1,0.3,0.1h0.7c0.2,0,0.3-0.1,0.5-0.2c0.1-0.1,0.2-0.3,0.2-0.5v-8.1l6.2,8.5  c0.1,0.1,0.1,0.2,0.2,0.2c0.1,0,0.2,0.1,0.3,0.1h0.8c0.2,0,0.3-0.1,0.5-0.2c0.1-0.1,0.2-0.3,0.2-0.5v-11.1c0-0.2-0.1-0.3-0.2-0.5  C128.6,106.6,128.4,106.5,128.2,106.5"/>
      <path class="st0" d="M139.6,106.5h-8.1c-0.2,0-0.3,0.1-0.5,0.2c-0.1,0.1-0.2,0.3-0.2,0.5v0.7c0,0.2,0.1,0.3,0.2,0.5  c0.1,0.1,0.3,0.2,0.5,0.2h3.1v9.8c0,0.2,0.1,0.3,0.2,0.5c0.1,0.1,0.3,0.2,0.5,0.2h0.7c0.1,0,0.2,0,0.3,0c0.1,0,0.2-0.1,0.2-0.1  s0.1-0.1,0.1-0.2c0-0.1,0.1-0.2,0.1-0.3v-9.8h3.1c0.2,0,0.3-0.1,0.5-0.2c0.1-0.1,0.2-0.3,0.2-0.5v-0.7c0-0.2-0.1-0.3-0.2-0.5  C140,106.6,139.8,106.5,139.6,106.5"/>
      <path class="st0" d="M144.5,112.6H141c-0.2,0-0.3,0.1-0.5,0.2c-0.1,0.1-0.2,0.3-0.2,0.5v0.5c0,0.2,0.1,0.3,0.2,0.5  c0.1,0.1,0.3,0.2,0.5,0.2h3.5c0.2,0,0.3-0.1,0.5-0.2c0.1-0.1,0.2-0.3,0.2-0.5v-0.5c0-0.2-0.1-0.3-0.2-0.5  C144.9,112.7,144.7,112.6,144.5,112.6z"/>
      <path class="st0" d="M158.3,112.2h-2.6c-0.2,0-0.3,0.1-0.5,0.2c-0.1,0.1-0.2,0.3-0.2,0.5v0.7c0,0.2,0.1,0.3,0.2,0.5  c0.1,0.1,0.3,0.2,0.5,0.2h1.3v2c-0.8,0.5-1.7,0.8-2.6,0.8c-0.6,0-1.1-0.1-1.7-0.3c-0.5-0.2-1-0.5-1.4-0.9c-0.4-0.4-0.7-0.9-1-1.4  c-0.2-0.5-0.3-1.1-0.3-1.7c0-0.6,0.1-1.1,0.3-1.7c0.2-0.5,0.6-1,1-1.4c0.4-0.4,0.9-0.7,1.4-0.9c0.5-0.2,1.1-0.3,1.7-0.3  c1.1,0,2.2,0.4,3.1,1.2c0.1,0.1,0.1,0.1,0.2,0.1c0.1,0,0.2,0,0.3,0c0.1,0,0.2,0,0.3-0.1c0.1,0,0.1-0.1,0.2-0.2l0.4-0.5  c0.1-0.1,0.2-0.3,0.1-0.5c0-0.2-0.1-0.3-0.2-0.4c-1.2-1-2.7-1.6-4.3-1.6c-0.8,0-1.6,0.2-2.4,0.5c-0.8,0.3-1.4,0.8-2,1.3  c-0.6,0.6-1,1.3-1.4,2c-0.3,0.8-0.5,1.6-0.5,2.4s0.2,1.6,0.5,2.4c0.3,0.8,0.8,1.4,1.3,2c0.6,0.6,1.3,1,2,1.4  c0.8,0.3,1.6,0.5,2.4,0.5c1.6,0,3.1-0.6,4.4-1.6c0.1-0.1,0.1-0.1,0.2-0.2s0.1-0.2,0.1-0.3v-4c0-0.2-0.1-0.3-0.2-0.5  C158.6,112.3,158.5,112.2,158.3,112.2"/>
      <path class="st0" d="M167.6,106.5c-1.2,0-2.4,0.4-3.4,1.1c-1,0.7-1.8,1.7-2.2,2.8c-0.4,1.1-0.5,2.4-0.3,3.6c0.3,1.2,0.9,2.3,1.7,3.1  c0.9,0.9,2,1.4,3.2,1.7c1.2,0.2,2.4,0.1,3.6-0.4c1.1-0.5,2.1-1.3,2.8-2.3c0.7-1,1-2.2,1-3.4c0-1.7-0.7-3.3-1.9-4.4  C170.9,107.2,169.2,106.5,167.6,106.5z M167.6,117c-0.8,0-1.6-0.3-2.3-0.8c-0.7-0.5-1.2-1.2-1.5-1.9c-0.3-0.8-0.4-1.6-0.2-2.5  c0.2-0.8,0.6-1.6,1.2-2.1s1.4-1,2.2-1.1c0.8-0.2,1.7-0.1,2.4,0.3c0.8,0.3,1.4,0.9,1.9,1.6c0.5,0.7,0.7,1.5,0.7,2.4  c0,0.6-0.1,1.1-0.4,1.7s-0.6,1-1,1.4c-0.4,0.4-0.9,0.7-1.4,0.9C168.7,116.9,168.1,117,167.6,117z"/>
      <path class="st0" d="M184.5,112.4c0.3-0.3,0.6-0.7,0.8-1.1c0.2-0.4,0.3-0.9,0.2-1.3c0-2.1-1.6-3.4-4.1-3.4h-4.5  c-0.2,0-0.3,0.1-0.5,0.2c-0.1,0.1-0.2,0.3-0.2,0.5v11.1c0,0.2,0.1,0.3,0.2,0.5c0.1,0.1,0.3,0.2,0.5,0.2h4.6c2.9,0,4.6-1.4,4.6-3.6  c0-0.6-0.1-1.2-0.4-1.7C185.4,113.1,185,112.7,184.5,112.4z M181.4,111.6h-3.2v-3.1h3.2c1,0,2.2,0.3,2.2,1.5  C183.5,111.1,182.8,111.6,181.4,111.6L181.4,111.6z M178.2,113.6h3.2c1,0,2.7,0.2,2.7,1.7c0,1.5-1.5,1.8-2.7,1.8h-3.2V113.6z"/>
      <path class="st0" d="M194.1,106.9c-0.1-0.1-0.1-0.2-0.2-0.3s-0.2-0.1-0.4-0.1h-0.7c-0.1,0-0.2,0-0.4,0.1c-0.1,0.1-0.2,0.2-0.2,0.3  l-5,11.1c0,0.1-0.1,0.2-0.1,0.3c0,0.1,0,0.2,0.1,0.3c0.1,0.1,0.1,0.2,0.2,0.2c0.1,0.1,0.2,0.1,0.3,0.1h0.7c0.1,0,0.2,0,0.4-0.1  c0.1-0.1,0.2-0.2,0.2-0.3l1.3-2.8h5.6l1.3,2.8c0.1,0.1,0.1,0.2,0.2,0.3c0.1,0.1,0.2,0.1,0.4,0.1h0.7c0.1,0,0.2,0,0.3-0.1  c0.1-0.1,0.2-0.1,0.2-0.2c0.1-0.1,0.1-0.2,0.1-0.3c0-0.1,0-0.2-0.1-0.3L194.1,106.9z M191.2,113.8l1.9-4.3l1.9,4.3H191.2z"/>
      <path class="st0" d="M202.4,106.5h-0.7c-0.2,0-0.3,0.1-0.5,0.2c-0.1,0.1-0.2,0.3-0.2,0.5v11.1c0,0.2,0.1,0.3,0.2,0.5  c0.1,0.1,0.3,0.2,0.5,0.2h0.7c0.2,0,0.3-0.1,0.5-0.2c0.1-0.1,0.2-0.3,0.2-0.5v-11.1c0-0.2-0.1-0.3-0.2-0.5  C202.8,106.6,202.6,106.5,202.4,106.5z"/>
      <path class="st0" d="M216.3,106.5h-0.6c-0.2,0-0.3,0.1-0.5,0.2c-0.1,0.1-0.2,0.3-0.2,0.5v8.1l-6.2-8.5c-0.1-0.1-0.1-0.2-0.2-0.2  c-0.1,0-0.2-0.1-0.3-0.1h-0.8c-0.2,0-0.3,0.1-0.5,0.2c-0.1,0.1-0.2,0.3-0.2,0.5v11.1c0,0.2,0.1,0.3,0.2,0.5c0.1,0.1,0.3,0.2,0.5,0.2  h0.7c0.2,0,0.3-0.1,0.5-0.2c0.1-0.1,0.2-0.3,0.2-0.5v-8.1l6.2,8.5c0.1,0.1,0.1,0.2,0.2,0.2c0.1,0,0.2,0.1,0.3,0.1h0.8  c0.2,0,0.3-0.1,0.5-0.2c0.1-0.1,0.2-0.3,0.2-0.5v-11.1c0-0.2-0.1-0.3-0.2-0.5C216.6,106.6,216.5,106.5,216.3,106.5"/>
      <path class="st1" d="M0,94.1h216.9L256,14H39.1L0,94.1"/>
      <path class="st2" d="M52.2,49l-0.5,1l-9.3,18.5h-6.2L50.6,40h6.1l1.8,19.6L68.7,40h5.7L60.1,68.6h-6L52.2,49z"/>
      <path class="st2" d="M70.4,68.6c-1.3-0.1-1.9-1.4-1.5-2.8l11.6-23.5c0.4-0.6,1-1.2,1.6-1.6c0.7-0.4,1.4-0.6,2.2-0.7h17.9h0  c1.6,0.2,1.9,1.6,1.5,2.8L92.2,66.3C92,67,91.5,67.6,90.8,68c-0.6,0.4-1.4,0.6-2.1,0.5L70.4,68.6z M85.9,63.7  c-0.4,0,1.8,0.3,2.6-1.6l7.6-15.4c0.3-0.8,0.3-1.8-1-1.9h0h-7.9c0.4,0-1.7-0.1-2.7,1.6l-7.6,15.4c-0.2,0.8,0.3,1.9,1,1.9L85.9,63.7z  "/>
      <path class="st2" d="M104.5,68.6h-5.9L112.6,40h18.7c0,0,3.7,0.1,3,2.6c-0.7,2.6-6.3,13.4-6.3,13.4s-0.8,2.1-5.3,1.8h-2l1.9,10.8  h-5.7l-1.8-10.8h-5.4L104.5,68.6z M120.4,53.7c2.6,0.1,3.5-1.4,3.5-1.4l2.8-5.3c1-2.4-1.5-2.3-1.5-2.3H116l-4.3,8.9L120.4,53.7z"/>
      <path class="st2" d="M150.8,44.7h9l1.7-4.7h-22.9l-1.8,4.7h8.5l-11.9,23.9h5.5L150.8,44.7z"/>
      <path class="st2" d="M153,68.5c-1.3-0.1-1.9-1.4-1.5-2.8l11.5-23.5c0.4-0.7,1-1.2,1.6-1.6c0.7-0.4,1.4-0.6,2.2-0.7l17.9,0h0  c1.6,0.2,1.9,1.6,1.5,2.8l-11.5,23.5c-0.3,0.7-0.8,1.3-1.4,1.7c-0.6,0.4-1.4,0.6-2.1,0.5H153z M168.5,63.7c-0.4,0,1.8,0.3,2.6-1.6  l7.6-15.4c0.3-0.8,0.3-1.8-1-1.9h0h0h-7.9c0.4,0-1.7-0.1-2.7,1.6l-7.6,15.4c-0.2,0.8,0.3,1.9,1,1.9H168.5z"/>
      <path class="st2" d="M196,49l-0.5,1l-9.3,18.5h-6.2L194.3,40h6.1l1.8,19.6L212.4,40h5.7l-14.2,28.6h-6L196,49z"/>
      <path class="st1" d="M231.2,90.6c0,1.1-0.4,2.1-1.2,2.8c-0.8,0.8-1.8,1.2-2.8,1.2c-0.5,0-1.1-0.1-1.6-0.3c-0.5-0.2-0.9-0.5-1.3-0.9  c-0.4-0.4-0.7-0.8-0.9-1.3c-0.2-0.5-0.3-1-0.3-1.6c0-1.1,0.4-2.1,1.2-2.9c0.8-0.8,1.8-1.2,2.8-1.2c0.5,0,1.1,0.1,1.6,0.3  c0.5,0.2,0.9,0.5,1.3,0.9c0.4,0.4,0.7,0.8,0.9,1.3C231.1,89.5,231.2,90.1,231.2,90.6z M224,90.5c0,0.9,0.3,1.7,0.9,2.3  c0.6,0.6,1.4,1,2.3,1c0.4,0,0.8-0.1,1.2-0.2s0.7-0.4,1-0.7c0.3-0.3,0.5-0.7,0.7-1c0.2-0.4,0.2-0.8,0.2-1.2c0-0.9-0.3-1.7-0.9-2.3  c-0.6-0.6-1.4-1-2.3-1c-0.4,0-0.8,0.1-1.2,0.2c-0.4,0.2-0.7,0.4-1,0.7c-0.3,0.3-0.5,0.7-0.7,1C224,89.7,224,90.1,224,90.5z   M228,92.8l-1.3-2h0v2h-0.7v-4.5h1.3c1.1,0,1.5,0.5,1.5,1.1c0,0.2,0,0.3-0.1,0.5c-0.1,0.2-0.1,0.3-0.3,0.4c-0.1,0.1-0.3,0.2-0.4,0.3  c-0.2,0.1-0.3,0.1-0.5,0.1c0.1,0.1,0.3,0.4,0.4,0.6l1,1.4L228,92.8z M227.1,88.9h-0.5v1.4h0.3c0.8,0,1-0.4,1-0.8  C227.9,89.1,227.7,88.9,227.1,88.9z"/>
    </svg>