<svg xmlns="http://www.w3.org/2000/svg" 
class="mx-auto h-auto w-32 py-3 sm:mx-0 lg:w-40 lg:py-5" 
viewBox="0 0 1740.000000 437.000000">
<title>
Paus logo
</title>
<g fill="#6B7280" transform="translate(0.000000,637.000000) scale(0.100000,-0.100000)"  stroke="none">
<path d="M120 4460 l0 -1720 573 0 c314 0 960 3 1435 7 l862 6 0 259 c0 175
-3 258 -11 258 -10 0 -231 -61 -237 -66 -2 -1 -11 -66 -20 -145 l-17 -144
-161 -3 -160 -2 -24 152 -25 151 -126 42 -125 42 -103 -128 -103 -128 -141 86
c-78 47 -144 87 -145 89 -2 1 24 64 57 139 l61 137 -87 99 c-48 55 -92 98 -97
95 -6 -2 -76 -29 -156 -61 -80 -31 -150 -59 -156 -62 -10 -4 -191 305 -182
311 1 2 58 42 126 91 67 48 124 91 127 94 2 4 -10 61 -28 128 l-32 121 -50 6
c-27 3 -75 6 -105 6 -30 0 -79 3 -107 6 l-53 7 0 162 0 162 38 6 c20 3 81 9
134 13 54 4 104 12 112 18 9 6 37 68 65 139 l49 127 -134 106 -134 106 22 36
c12 21 52 83 88 138 l65 102 143 -56 143 -55 100 99 c74 73 99 104 96 119 -3
11 -23 70 -45 132 l-41 112 102 62 c56 34 111 68 122 75 18 12 27 4 109 -95
l90 -108 155 52 156 52 20 114 20 114 157 3 156 3 12 -58 c18 -88 38 -175 42
-178 4 -4 220 -105 224 -105 2 0 4 101 4 225 l0 225 -1430 0 -1430 0 0 -1720z"/>
<path d="M3500 4437 l0 -1714 631 -8 c347 -4 633 -4 637 -1 3 4 8 313 10 686
l4 680 627 0 c500 0 639 3 693 14 199 43 336 180 400 401 23 79 23 86 23 630
l0 550 -31 85 c-69 193 -190 308 -389 367 -56 17 -147 18 -1332 21 l-1273 3 0
-1714z m1598 1231 c74 -28 120 -66 149 -127 l28 -56 0 -370 c0 -401 -1 -411
-57 -492 -56 -82 -166 -123 -335 -124 -57 0 -107 3 -113 6 -7 4 -10 211 -10
597 l0 590 148 -4 c101 -3 160 -9 190 -20z"/>
<path d="M7336 6103 c-8 -27 -205 -687 -436 -1468 -232 -781 -457 -1537 -499
-1680 l-77 -260 569 -3 c314 -1 572 0 574 2 4 3 213 675 213 682 0 3 233 3
518 2 l517 -3 119 -332 120 -333 544 0 544 0 -7 28 c-3 15 -248 788 -544 1717
l-538 1690 -801 3 -800 2 -16 -47z m1017 -1596 c96 -312 172 -569 169 -572 -3
-3 -153 -5 -334 -5 -300 0 -328 1 -328 17 0 13 288 1071 306 1122 2 8 7 12 9
9 3 -2 83 -259 178 -571z"/>
<path d="M12273 6143 l-193 -3 0 -1358 c0 -878 -4 -1370 -10 -1393 -43 -155
-252 -231 -439 -160 -70 26 -115 62 -148 119 l-28 47 -3 1373 -2 1372 -635 0
-635 0 2 -1382 3 -1383 22 -65 c33 -97 90 -186 168 -266 115 -116 265 -204
458 -269 199 -67 207 -67 1016 -62 697 4 729 5 806 25 329 86 560 290 647 572
l23 75 3 1383 3 1382 -433 -2 c-238 -2 -520 -4 -625 -5z"/>
<path d="M14365 6129 c-97 -16 -218 -62 -292 -111 -81 -55 -138 -125 -175
-217 -23 -55 -23 -64 -26 -544 -3 -544 2 -609 57 -722 34 -68 118 -155 193
-199 64 -37 194 -80 303 -99 160 -29 303 -37 667 -37 375 0 483 -8 555 -42
104 -49 115 -95 111 -475 l-3 -298 -26 -56 c-38 -80 -91 -134 -168 -171 -62
-31 -73 -33 -176 -33 -98 0 -116 3 -165 26 -74 35 -125 81 -158 143 -27 51
-27 52 -30 299 l-4 247 -585 0 -585 0 4 -337 c4 -318 6 -342 26 -397 33 -90
65 -137 135 -203 78 -72 133 -105 252 -146 l90 -32 1065 0 1065 0 78 23 c207
60 321 167 374 349 14 49 17 128 21 518 5 582 -5 697 -78 852 -54 117 -153
192 -308 235 -72 20 -109 22 -602 28 -506 6 -528 7 -600 29 -140 42 -233 111
-281 208 -23 47 -24 54 -24 309 l0 260 30 59 c34 67 102 125 175 151 101 35
242 28 331 -17 48 -24 105 -90 118 -136 6 -22 11 -140 11 -280 l0 -243 591 0
590 0 -3 333 c-4 313 -5 335 -26 391 -30 80 -76 150 -126 190 -90 74 -231 126
-396 146 -101 12 -1930 12 -2005 -1z"/>
<path d="M1750 4645 l0 -745 140 0 140 0 2 393 3 392 110 0 110 0 3 -612 2
-613 130 0 130 0 0 215 0 215 235 0 235 0 0 510 0 510 -477 2 -478 3 -3 238
-2 237 -140 0 -140 0 0 -745z m1008 -237 l2 -278 -115 0 -115 0 0 280 0 281
113 -3 112 -3 3 -277z"/>
<path d="M12945 2746 c-29 -31 -99 -175 -90 -184 2 -2 10 0 17 4 7 5 40 18 73
29 59 20 60 22 84 83 23 60 24 63 6 82 -26 29 -53 25 -90 -14z"/>
</g>
</svg>
