    <svg 
    xmlns="http://www.w3.org/2000/svg" 
    class="mx-auto h-auto w-32 py-3 sm:mx-0 lg:w-40 lg:py-5" 
    viewBox="0 -5 130 100"
    preserveAspectRatio="xMidYMid meet"
    >
      <g fill-rule="evenodd" clip-rule="evenodd" transform="scale(0.6,0.45)">
        <path fill="#6B7280" d="M98.684 145.848h5.717v-16.874h5.9v16.874h5.625v-16.874h4.15a1.85 1.85 0 0 1 1.844 1.844v15.123h5.809v-14.938a7.005 7.005 0 0 0-7.008-7.008H98.684v21.853zM9.426 123.994h20.101c3.688 0 6.731 3.043 6.731 6.731 0 3.688-3.043 6.639-6.731 6.639H15.143v8.483H9.426v-21.853zm5.717 4.795h13.831c1.014 0 1.937.83 1.937 1.845 0 1.105-.922 1.936-1.937 1.936H15.143v-3.781zm23.329-4.795h20.193c3.596 0 6.639 3.043 6.639 6.731 0 1.476-.554 2.95-1.384 4.057 1.107 1.107 1.752 2.121 1.752 3.504v7.562h-5.809v-6.915c0-.646-.738-1.568-1.383-1.568H44.188v8.483h-5.717v-21.854h.001zm5.716 4.795H58.02c1.106 0 1.936.83 1.936 1.845 0 1.105-.83 1.936-1.936 1.936H44.188v-3.781zm123.558-4.887h16.229v4.887h-15.859c-.83 0-1.475.737-1.475 1.567v8.944c0 .83.645 1.476 1.475 1.476h15.859v4.979h-16.229c-3.871 0-7.1-3.227-7.1-7.1v-7.653c0-3.965 3.229-7.1 7.1-7.1zM66.502 145.94h6.824l2.582-5.257h12.725l2.582 5.257h6.731l-9.958-19.18c-2.489-3.873-8.944-3.873-11.525 0l-9.961 19.18zm12.172-10.697l2.305-4.518c.461-1.015 2.213-.922 2.674 0l2.213 4.518h-7.192zm49.885 10.697h6.73l2.582-5.257h12.725l2.582 5.257h6.732l-9.959-19.18c-2.398-3.873-8.945-3.873-11.434 0l-9.958 19.18zm12.08-10.697l2.305-4.518c.553-1.015 2.305-.922 2.674 0l2.305 4.518h-7.284zm-90.457-19.455h42.785V75.493l-14.108 13.37c-7.653-5.625-12.632-14.753-12.632-24.896 0-17.058 13.831-30.89 30.889-30.89 16.967 0 30.891 13.832 30.891 30.89a30.62 30.62 0 0 1-13.094 25.173l-14.477-13.646v40.295h42.691l-13-12.264c8.021-8.299 13-19.641 13-32.089 0-25.449-20.654-46.104-46.012-46.104-25.357 0-46.104 20.655-46.104 46.104 0 12.264 4.887 23.421 12.725 31.628l-13.554 12.724z"></path>
      </g> 
    </svg>