<svg xmlns="http://www.w3.org/2000/svg" 
class="mx-auto h-auto w-32 py-3 sm:mx-0 lg:w-40 lg:py-5" 
viewBox="0 0 2158.000000 984.000000"
preserveAspectRatio="xMidYMid meet">
<title>
telair logo
</title>
<g transform="translate(0.000000,984.000000) scale(0.100000,-0.100000)"
fill="#6B7280" stroke="none">
<path d="M7280 6040 l0 -3760 560 0 560 0 0 3760 0 3760 -560 0 -560 0 0
-3760z"/>
<path d="M16166 9561 c-4 -5 3 -7 14 -4 23 6 26 13 6 13 -8 0 -17 -4 -20 -9z"/>
<path d="M16282 9566 c2 -1 10 -7 19 -14 13 -10 18 -10 22 0 3 8 -5 14 -20 14
-13 1 -23 1 -21 0z"/>
<path d="M16026 9542 c-2 -4 11 -8 30 -9 19 -1 34 1 34 5 0 9 -58 13 -64 4z"/>
<path d="M16218 9543 c12 -2 32 -2 45 0 12 2 2 4 -23 4 -25 0 -35 -2 -22 -4z"/>
<path d="M16390 9540 c0 -5 7 -7 15 -4 8 4 15 8 15 10 0 2 -7 4 -15 4 -8 0
-15 -4 -15 -10z"/>
<path d="M15802 9459 c2 -7 19 -14 37 -15 38 -2 30 11 -13 22 -22 5 -28 4 -24
-7z"/>
<path d="M16605 9450 c-19 -8 -19 -9 3 -9 12 -1 22 4 22 9 0 6 -1 10 -2 9 -2
0 -12 -4 -23 -9z"/>
<path d="M15724 9421 c4 -5 0 -11 -6 -13 -7 -3 0 -7 15 -10 27 -5 27 -5 11 13
-18 20 -29 25 -20 10z"/>
<path d="M16750 9386 c7 -7 13 -7 20 0 6 6 3 10 -10 10 -13 0 -16 -4 -10 -10z"/>
<path d="M16815 9344 c4 -44 13 -41 27 10 2 5 -4 10 -14 12 -12 1 -15 -5 -13
-22z m18 1 c-3 -9 -8 -14 -10 -11 -3 3 -2 9 2 15 9 16 15 13 8 -4z"/>
<path d="M13850 9340 c-9 -6 -10 -10 -3 -10 6 0 15 5 18 10 8 12 4 12 -15 0z"/>
<path d="M13895 9340 c-3 -6 1 -7 9 -4 18 7 21 14 7 14 -6 0 -13 -4 -16 -10z"/>
<path d="M14226 9335 c19 -14 19 -14 -3 -15 -12 0 -25 -4 -28 -10 -3 -5 1 -8
9 -5 9 3 23 7 32 10 13 4 14 8 4 20 -7 8 -17 15 -23 15 -6 0 -2 -7 9 -15z"/>
<path d="M16869 9327 c6 -8 7 -18 3 -22 -4 -5 -1 -5 6 -1 10 6 10 11 1 22 -6
8 -14 14 -16 14 -3 0 0 -6 6 -13z"/>
<path d="M15593 9324 c4 -4 0 -16 -10 -26 -9 -11 -11 -18 -5 -18 7 0 12 5 12
11 0 5 5 7 12 3 6 -4 8 -3 4 4 -3 5 -1 12 6 14 7 3 4 7 -7 12 -11 4 -16 4 -12
0z"/>
<path d="M13865 9310 c27 -12 43 -12 25 0 -8 5 -22 9 -30 9 -10 0 -8 -3 5 -9z"/>
<path d="M16909 9297 c6 -8 7 -18 3 -22 -4 -5 -1 -5 6 -1 10 6 10 11 1 22 -6
8 -14 14 -16 14 -3 0 0 -6 6 -13z"/>
<path d="M14370 9290 c0 -5 5 -10 11 -10 5 0 7 5 4 10 -3 6 -8 10 -11 10 -2 0
-4 -4 -4 -10z"/>
<path d="M15625 9290 c3 -5 11 -10 16 -10 6 0 7 5 4 10 -3 6 -11 10 -16 10 -6
0 -7 -4 -4 -10z"/>
<path d="M15529 9264 c-22 -25 -22 -26 -3 -16 12 6 24 18 28 27 8 21 3 19 -25
-11z"/>
<path d="M13657 9273 c-10 -9 -9 -41 1 -47 4 -2 8 9 7 25 0 16 0 29 -1 29 0 0
-4 -3 -7 -7z"/>
<path d="M16885 9260 c3 -5 8 -10 11 -10 2 0 4 5 4 10 0 6 -5 10 -11 10 -5 0
-7 -4 -4 -10z"/>
<path d="M15549 9243 c-13 -16 -12 -17 4 -4 9 7 17 15 17 17 0 8 -8 3 -21 -13z"/>
<path d="M14425 9231 c-3 -5 0 -13 6 -17 7 -4 9 -3 5 4 -3 5 0 13 6 15 9 4 10
6 1 6 -6 1 -14 -3 -18 -8z"/>
<path d="M15565 9230 c-3 -5 -1 -10 4 -10 6 0 11 5 11 10 0 6 -2 10 -4 10 -3
0 -8 -4 -11 -10z"/>
<path d="M16930 9236 c0 -2 9 -6 20 -9 11 -3 18 -1 14 4 -5 9 -34 13 -34 5z"/>
<path d="M16880 9221 c0 -6 4 -13 10 -16 6 -3 7 1 4 9 -7 18 -14 21 -14 7z"/>
<path d="M13636 9212 c-3 -4 4 -9 15 -9 23 -2 25 3 4 10 -8 4 -16 3 -19 -1z"/>
<path d="M15469 9199 c-9 -17 -8 -25 5 -37 10 -11 16 -12 16 -4 0 7 -4 12 -10
12 -5 0 -10 5 -10 11 0 6 6 9 13 6 8 -3 13 3 13 14 0 25 -13 24 -27 -2z"/>
<path d="M16935 9210 c3 -5 8 -10 11 -10 2 0 4 5 4 10 0 6 -5 10 -11 10 -5 0
-7 -4 -4 -10z"/>
<path d="M16966 9202 c-3 -5 1 -9 9 -9 8 0 12 4 9 9 -3 4 -7 8 -9 8 -2 0 -6
-4 -9 -8z"/>
<path d="M13560 9169 c0 -5 5 -7 10 -4 6 3 10 8 10 11 0 2 -4 4 -10 4 -5 0
-10 -5 -10 -11z"/>
<path d="M15511 9164 c0 -11 3 -14 6 -6 3 7 2 16 -1 19 -3 4 -6 -2 -5 -13z"/>
<path d="M14534 9158 c-3 -4 2 -8 10 -8 8 0 17 4 20 8 3 5 -2 9 -10 9 -8 0
-17 -4 -20 -9z"/>
<path d="M13530 9149 c0 -5 -4 -7 -10 -4 -6 3 -7 -1 -4 -10 5 -12 9 -13 20 -4
16 13 18 29 4 29 -5 0 -10 -5 -10 -11z"/>
<path d="M17010 9148 c0 -6 6 -8 14 -5 7 3 19 1 25 -4 8 -6 8 -5 1 3 -13 15
-40 19 -40 6z"/>
<path d="M12095 9140 c-3 -5 -1 -10 4 -10 6 0 11 5 11 10 0 6 -2 10 -4 10 -3
0 -8 -4 -11 -10z"/>
<path d="M12150 9140 c8 -5 24 -10 34 -10 26 0 18 6 -19 14 -22 5 -26 4 -15
-4z"/>
<path d="M14515 9130 c-3 -5 -1 -10 4 -10 6 0 11 5 11 10 0 6 -2 10 -4 10 -3
0 -8 -4 -11 -10z"/>
<path d="M13476 9117 c3 -10 9 -15 12 -12 3 3 0 11 -7 18 -10 9 -11 8 -5 -6z"/>
<path d="M14567 9110 c-3 -11 -1 -20 4 -20 5 0 9 9 9 20 0 11 -2 20 -4 20 -2
0 -6 -9 -9 -20z"/>
<path d="M14600 9126 c0 -2 8 -10 18 -17 15 -13 16 -12 3 4 -13 16 -21 21 -21
13z"/>
<path d="M12333 9103 c9 -2 17 -9 17 -14 0 -5 5 -9 11 -9 8 0 8 5 -1 15 -7 8
-20 14 -29 14 -13 -1 -13 -2 2 -6z"/>
<path d="M12375 9100 c3 -5 11 -10 16 -10 6 0 7 5 4 10 -3 6 -11 10 -16 10 -6
0 -7 -4 -4 -10z"/>
<path d="M13450 9099 c0 -5 5 -7 10 -4 6 3 10 8 10 11 0 2 -4 4 -10 4 -5 0
-10 -5 -10 -11z"/>
<path d="M11934 9085 c-3 -8 -4 -20 -2 -27 3 -7 7 -1 10 15 6 29 1 36 -8 12z"/>
<path d="M11960 9081 c0 -10 19 -25 25 -20 1 2 -3 10 -11 17 -8 7 -14 8 -14 3z"/>
<path d="M14643 9075 c0 -8 4 -15 9 -15 4 0 8 4 8 9 0 6 -4 12 -8 15 -5 3 -9
-1 -9 -9z"/>
<path d="M17080 9085 c4 -21 -1 -30 -9 -16 -5 8 -11 9 -15 3 -8 -14 18 -22 35
-11 11 7 12 10 1 21 -8 7 -13 9 -12 3z"/>
<path d="M12427 9073 c-10 -9 -9 -33 1 -33 4 0 8 9 9 20 2 21 0 24 -10 13z"/>
<path d="M12366 9051 c-4 -5 3 -7 14 -4 23 6 26 13 6 13 -8 0 -17 -4 -20 -9z"/>
<path d="M12470 9050 c-9 -6 -10 -10 -3 -10 6 0 15 5 18 10 8 12 4 12 -15 0z"/>
<path d="M13450 9049 c0 -5 5 -7 10 -4 6 3 10 8 10 11 0 2 -4 4 -10 4 -5 0
-10 -5 -10 -11z"/>
<path d="M13500 9050 c-9 -6 -10 -10 -3 -10 6 0 15 5 18 10 8 12 4 12 -15 0z"/>
<path d="M15374 9053 c3 -4 18 -8 32 -9 14 -2 24 0 20 3 -3 3 -17 7 -32 9 -14
1 -23 0 -20 -3z"/>
<path d="M12525 9020 c10 -11 20 -20 23 -20 3 0 -3 9 -13 20 -10 11 -20 20
-23 20 -3 0 3 -9 13 -20z"/>
<path d="M14690 9000 c6 -11 13 -20 16 -20 2 0 0 9 -6 20 -6 11 -13 20 -16 20
-2 0 0 -9 6 -20z"/>
<path d="M11810 8990 c0 -5 5 -10 10 -10 6 0 10 5 10 10 0 6 -4 10 -10 10 -5
0 -10 -4 -10 -10z"/>
<path d="M12550 8980 c8 -5 20 -10 25 -10 6 0 3 5 -5 10 -8 5 -19 10 -25 10
-5 0 -3 -5 5 -10z"/>
<path d="M15326 8975 c-8 -22 -8 -22 8 -28 11 -4 13 0 11 15 -6 28 -11 32 -19
13z"/>
<path d="M30 8400 l0 -570 605 0 605 0 0 -2775 0 -2775 590 0 590 0 0 2775 0
2775 605 0 605 0 0 570 0 570 -1800 0 -1800 0 0 -570z"/>
<path d="M12575 8960 c-16 -7 -17 -9 -3 -9 9 -1 20 4 23 9 7 11 7 11 -20 0z"/>
<path d="M11747 8943 c-4 -3 -7 -11 -7 -17 0 -6 5 -5 12 2 6 6 9 14 7 17 -3 3
-9 2 -12 -2z"/>
<path d="M12620 8925 c13 -14 26 -25 28 -25 3 0 -5 11 -18 25 -13 14 -26 25
-28 25 -3 0 5 -11 18 -25z"/>
<path d="M15316 8927 c3 -10 9 -15 12 -12 3 3 0 11 -7 18 -10 9 -11 8 -5 -6z"/>
<path d="M15344 8918 c-10 -16 -6 -86 6 -106 6 -12 7 -5 3 23 -3 22 -7 42 -9
44 -1 1 1 14 6 27 10 25 6 32 -6 12z"/>
<path d="M17126 8913 c-4 -9 -3 -20 1 -24 4 -4 9 3 9 17 2 28 -1 31 -10 7z"/>
<path d="M12606 8907 c3 -10 9 -15 12 -12 3 3 0 11 -7 18 -10 9 -11 8 -5 -6z"/>
<path d="M10774 8898 c9 -5 23 -5 32 0 12 6 7 9 -16 9 -23 0 -28 -3 -16 -9z"/>
<path d="M11751 8894 c0 -11 3 -14 6 -6 3 7 2 16 -1 19 -3 4 -6 -2 -5 -13z"/>
<path d="M14730 8905 c0 -5 5 -17 10 -25 5 -8 10 -10 10 -5 0 6 -5 17 -10 25
-5 8 -10 11 -10 5z"/>
<path d="M11714 8875 c1 -22 6 -31 19 -31 9 0 17 4 17 8 0 4 -5 8 -11 8 -6 0
-8 7 -5 16 3 8 2 13 -3 9 -5 -3 -11 1 -14 7 -2 7 -4 -1 -3 -17z"/>
<path d="M13336 8883 c-6 -14 -5 -15 5 -6 7 7 10 15 7 18 -3 3 -9 -2 -12 -12z"/>
<path d="M15293 8869 c-2 -23 3 -25 10 -4 4 8 3 16 -1 19 -4 3 -9 -4 -9 -15z"/>
<path d="M10650 8865 c-11 -13 -10 -14 4 -9 9 3 16 10 16 15 0 13 -6 11 -20
-6z"/>
<path d="M11002 8860 c7 -11 17 -20 22 -20 5 0 1 9 -9 20 -10 11 -20 20 -22
20 -2 0 2 -9 9 -20z"/>
<path d="M14766 8855 c-9 -26 -7 -32 5 -12 6 10 9 21 6 23 -2 3 -7 -2 -11 -11z"/>
<path d="M17126 8862 c-3 -5 1 -9 9 -9 8 0 12 4 9 9 -3 4 -7 8 -9 8 -2 0 -6
-4 -9 -8z"/>
<path d="M17161 8844 c0 -11 3 -14 6 -6 3 7 2 16 -1 19 -3 4 -6 -2 -5 -13z"/>
<path d="M15308 8836 c-19 -14 -23 -26 -10 -26 4 0 13 9 20 20 14 23 13 24
-10 6z"/>
<path d="M10609 8836 c-7 -13 -6 -46 2 -46 7 0 9 9 6 21 -4 14 -2 19 7 16 7
-3 19 -2 25 3 9 5 4 8 -13 8 -14 0 -26 -1 -27 -2z"/>
<path d="M10683 8825 c-3 -9 -3 -19 1 -22 3 -4 6 1 6 10 0 8 6 18 13 20 9 4 9
6 -1 6 -7 1 -15 -6 -19 -14z"/>
<path d="M12643 8825 c0 -8 4 -12 9 -9 5 3 6 10 3 15 -9 13 -12 11 -12 -6z"/>
<path d="M11691 8814 c0 -11 3 -14 6 -6 3 7 2 16 -1 19 -3 4 -6 -2 -5 -13z"/>
<path d="M13347 8823 c-4 -3 -7 -11 -7 -17 0 -6 5 -5 12 2 6 6 9 14 7 17 -3 3
-9 2 -12 -2z"/>
<path d="M12679 8803 c-8 -9 -9 -14 -3 -10 7 4 14 0 18 -8 3 -8 11 -15 17 -15
8 0 6 7 -4 18 -10 10 -14 22 -10 25 3 4 4 7 1 7 -3 0 -12 -8 -19 -17z"/>
<path d="M17175 8810 c-3 -5 -1 -10 4 -10 6 0 11 5 11 10 0 6 -2 10 -4 10 -3
0 -8 -4 -11 -10z"/>
<path d="M12640 8781 c0 -5 5 -13 10 -16 6 -3 10 -2 10 4 0 5 -4 13 -10 16 -5
3 -10 2 -10 -4z"/>
<path d="M15266 8773 c-6 -14 -5 -15 5 -6 7 7 10 15 7 18 -3 3 -9 -2 -12 -12z"/>
<path d="M11066 8753 c-6 -14 -5 -15 5 -6 7 7 10 15 7 18 -3 3 -9 -2 -12 -12z"/>
<path d="M11087 8747 c-6 -15 28 -17 40 -1 5 5 4 6 -1 2 -5 -4 -15 -3 -21 2
-9 7 -14 6 -18 -3z"/>
<path d="M12660 8738 c0 -7 10 -14 21 -15 12 -1 20 -1 18 0 -2 2 -12 9 -21 16
-15 11 -18 11 -18 -1z"/>
<path d="M10534 8732 c-6 -4 -4 -13 8 -24 10 -10 18 -14 18 -9 0 6 -5 13 -10
16 -6 4 -8 11 -5 16 7 11 4 11 -11 1z"/>
<path d="M11627 8693 c-4 -3 -7 -11 -7 -17 0 -6 5 -5 12 2 6 6 9 14 7 17 -3 3
-9 2 -12 -2z"/>
<path d="M11121 8664 c0 -11 3 -14 6 -6 3 7 2 16 -1 19 -3 4 -6 -2 -5 -13z"/>
<path d="M14821 8664 c0 -11 3 -14 6 -6 3 7 2 16 -1 19 -3 4 -6 -2 -5 -13z"/>
<path d="M11660 8653 c0 -4 5 -15 10 -23 8 -13 10 -13 10 2 0 9 -4 20 -10 23
-5 3 -10 3 -10 -2z"/>
<path d="M13250 8631 c0 -6 4 -13 10 -16 6 -3 7 1 4 9 -7 18 -14 21 -14 7z"/>
<path d="M14810 8631 c0 -6 4 -13 10 -16 6 -3 7 1 4 9 -7 18 -14 21 -14 7z"/>
<path d="M15261 8624 c0 -11 3 -14 6 -6 3 7 2 16 -1 19 -3 4 -6 -2 -5 -13z"/>
<path d="M10492 8595 c0 -16 2 -22 5 -12 2 9 2 23 0 30 -3 6 -5 -1 -5 -18z"/>
<path d="M10527 8585 c3 -22 7 -42 9 -44 8 -9 2 45 -6 64 -7 14 -8 8 -3 -20z"/>
<path d="M10551 8604 c0 -11 3 -14 6 -6 3 7 2 16 -1 19 -3 4 -6 -2 -5 -13z"/>
<path d="M11141 8584 c0 -11 3 -14 6 -6 3 7 2 16 -1 19 -3 4 -6 -2 -5 -13z"/>
<path d="M15270 8574 c0 -16 -2 -17 -10 -4 -6 9 -10 10 -10 3 0 -19 20 -26 26
-8 4 9 4 19 0 22 -3 4 -6 -2 -6 -13z"/>
<path d="M11626 8565 c-9 -26 -7 -32 5 -12 6 10 9 21 6 23 -2 3 -7 -2 -11 -11z"/>
<path d="M13261 8554 c0 -11 3 -14 6 -6 3 7 2 16 -1 19 -3 4 -6 -2 -5 -13z"/>
<path d="M11147 8553 c-4 -3 -7 -13 -7 -22 1 -13 3 -13 11 2 11 19 8 33 -4 20z"/>
<path d="M17222 8540 c0 -14 2 -19 5 -12 2 6 2 18 0 25 -3 6 -5 1 -5 -13z"/>
<path d="M10511 8524 c0 -11 3 -14 6 -6 3 7 2 16 -1 19 -3 4 -6 -2 -5 -13z"/>
<path d="M13260 8475 c0 -14 4 -25 9 -25 4 0 6 11 3 25 -2 14 -6 25 -8 25 -2
0 -4 -11 -4 -25z"/>
<path d="M11647 8469 c4 -13 8 -18 11 -10 2 7 -1 18 -6 23 -8 8 -9 4 -5 -13z"/>
<path d="M11132 8466 c7 -8 15 -12 17 -11 5 6 -10 25 -20 25 -5 0 -4 -6 3 -14z"/>
<path d="M10526 8427 c3 -10 9 -15 12 -12 3 3 0 11 -7 18 -10 9 -11 8 -5 -6z"/>
<path d="M11640 8424 c0 -6 8 -18 18 -27 15 -14 19 -15 19 -2 0 8 -4 12 -8 9
-4 -2 -12 4 -18 13 -6 10 -11 13 -11 7z"/>
<path d="M14801 8414 c0 -11 3 -14 6 -6 3 7 2 16 -1 19 -3 4 -6 -2 -5 -13z"/>
<path d="M12697 8379 c6 -23 9 -24 16 -5 3 8 0 17 -7 19 -10 4 -12 -1 -9 -14z"/>
<path d="M13316 8386 c10 -8 21 -12 24 -10 5 6 -21 24 -34 24 -6 0 -1 -6 10
-14z"/>
<path d="M14755 8363 l-17 -28 23 22 c12 12 20 25 17 28 -3 3 -13 -7 -23 -22z"/>
<path d="M10580 8361 c0 -4 10 -12 23 -20 19 -13 21 -12 10 1 -7 8 -11 17 -8
20 3 2 -2 5 -10 5 -8 0 -15 -3 -15 -6z"/>
<path d="M11075 8360 c-4 -6 -11 -8 -16 -5 -5 4 -9 1 -9 -4 0 -16 16 -13 30 4
7 8 10 15 7 15 -3 0 -9 -5 -12 -10z"/>
<path d="M12680 8339 c0 -5 5 -7 10 -4 6 3 10 8 10 11 0 2 -4 4 -10 4 -5 0
-10 -5 -10 -11z"/>
<path d="M13290 8335 c7 -9 15 -13 17 -11 7 7 -7 26 -19 26 -6 0 -6 -6 2 -15z"/>
<path d="M13340 8340 c0 -5 5 -10 11 -10 5 0 7 5 4 10 -3 6 -8 10 -11 10 -2 0
-4 -4 -4 -10z"/>
<path d="M14775 8339 c-11 -16 -1 -19 13 -3 7 8 8 14 3 14 -5 0 -13 -5 -16
-11z"/>
<path d="M10930 8310 c-9 -6 -10 -10 -3 -10 6 0 15 5 18 10 8 12 4 12 -15 0z"/>
<path d="M14742 8308 c-7 -7 -12 -16 -12 -22 0 -5 3 -6 7 -3 3 4 12 -1 20 -11
13 -15 13 -15 3 6 -6 12 -8 27 -5 32 8 14 2 13 -13 -2z"/>
<path d="M15340 8315 c0 -5 5 -17 10 -25 5 -8 10 -10 10 -5 0 6 -5 17 -10 25
-5 8 -10 11 -10 5z"/>
<path d="M10650 8301 c0 -6 4 -13 10 -16 6 -3 7 1 4 9 -7 18 -14 21 -14 7z"/>
<path d="M13341 8294 c0 -11 3 -14 6 -6 3 7 2 16 -1 19 -3 4 -6 -2 -5 -13z"/>
<path d="M10753 8293 c9 -2 15 -9 12 -14 -4 -5 -1 -9 4 -9 6 0 11 7 11 15 0 9
-9 15 -22 14 -18 -1 -19 -2 -5 -6z"/>
<path d="M11715 8270 c-3 -5 -1 -10 4 -10 6 0 11 5 11 10 0 6 -2 10 -4 10 -3
0 -8 -4 -11 -10z"/>
<path d="M11750 8270 c0 -5 0 -13 1 -16 0 -4 -5 -11 -13 -16 -11 -8 -10 -9 1
-6 13 4 28 48 16 48 -3 0 -5 -4 -5 -10z"/>
<path d="M10920 8259 c0 -5 5 -7 10 -4 6 3 10 8 10 11 0 2 -4 4 -10 4 -5 0
-10 -5 -10 -11z"/>
<path d="M13315 8260 c3 -5 8 -10 11 -10 2 0 4 5 4 10 0 6 -5 10 -11 10 -5 0
-7 -4 -4 -10z"/>
<path d="M17120 8265 c0 -5 5 -17 10 -25 5 -8 10 -10 10 -5 0 6 -5 17 -10 25
-5 8 -10 11 -10 5z"/>
<path d="M15341 8244 c0 -11 3 -14 6 -6 3 7 2 16 -1 19 -3 4 -6 -2 -5 -13z"/>
<path d="M14730 8240 c0 -5 5 -10 11 -10 5 0 7 5 4 10 -3 6 -8 10 -11 10 -2 0
-4 -4 -4 -10z"/>
<path d="M11806 8215 c4 -8 11 -15 16 -15 6 0 5 6 -2 15 -7 8 -14 15 -16 15
-2 0 -1 -7 2 -15z"/>
<path d="M12582 8217 c-6 -7 -7 -18 -3 -25 5 -9 13 -6 27 10 19 22 19 22 0 8
-18 -14 -19 -13 -13 3 8 20 4 22 -11 4z"/>
<path d="M13337 8219 c7 -7 15 -10 18 -7 3 3 -2 9 -12 12 -14 6 -15 5 -6 -5z"/>
<path d="M11782 8176 c7 -8 15 -12 17 -11 5 6 -10 25 -20 25 -5 0 -4 -6 3 -14z"/>
<path d="M11855 8150 c-4 -6 -11 -8 -16 -5 -5 4 -9 1 -9 -4 0 -16 16 -13 30 4
7 8 10 15 7 15 -3 0 -9 -5 -12 -10z"/>
<path d="M13390 8150 c-9 -6 -10 -10 -3 -10 6 0 15 5 18 10 8 12 4 12 -15 0z"/>
<path d="M14646 8151 c-4 -5 -2 -12 3 -15 5 -4 12 -2 15 3 4 5 2 12 -3 15 -5
4 -12 2 -15 -3z"/>
<path d="M17085 8150 c-3 -5 -1 -10 4 -10 6 0 11 5 11 10 0 6 -2 10 -4 10 -3
0 -8 -4 -11 -10z"/>
<path d="M12490 8146 c0 -2 8 -10 18 -17 15 -13 16 -12 3 4 -13 16 -21 21 -21
13z"/>
<path d="M15368 8133 c7 -3 16 -2 19 1 4 3 -2 6 -13 5 -11 0 -14 -3 -6 -6z"/>
<path d="M15415 8120 c3 -5 8 -10 11 -10 2 0 4 5 4 10 0 6 -5 10 -11 10 -5 0
-7 -4 -4 -10z"/>
<path d="M17090 8120 c0 -5 5 -10 11 -10 5 0 7 5 4 10 -3 6 -8 10 -11 10 -2 0
-4 -4 -4 -10z"/>
<path d="M11896 8112 c-3 -5 1 -9 9 -9 8 0 12 4 9 9 -3 4 -7 8 -9 8 -2 0 -6
-4 -9 -8z"/>
<path d="M12455 8099 c-11 -17 1 -21 15 -4 8 9 8 15 2 15 -6 0 -14 -5 -17 -11z"/>
<path d="M15370 8106 c0 -2 9 -6 20 -9 11 -3 20 -1 20 4 0 5 -9 9 -20 9 -11 0
-20 -2 -20 -4z"/>
<path d="M17048 8103 c7 -3 16 -2 19 1 4 3 -2 6 -13 5 -11 0 -14 -3 -6 -6z"/>
<path d="M15420 8089 c0 -5 5 -7 10 -4 6 3 10 8 10 11 0 2 -4 4 -10 4 -5 0
-10 -5 -10 -11z"/>
<path d="M11977 8074 c7 -3 9 -12 6 -20 -5 -14 8 -19 20 -7 9 8 -12 33 -27 32
-7 0 -7 -2 1 -5z"/>
<path d="M12330 8076 c0 -2 7 -7 16 -10 8 -3 12 -2 9 4 -6 10 -25 14 -25 6z"/>
<path d="M14596 8071 c-3 -5 1 -11 9 -14 9 -4 12 -1 8 9 -6 16 -10 17 -17 5z"/>
<path d="M12088 8063 c7 -3 16 -2 19 1 4 3 -2 6 -13 5 -11 0 -14 -3 -6 -6z"/>
<path d="M12208 8063 c6 -2 18 -2 25 0 6 3 1 5 -13 5 -14 0 -19 -2 -12 -5z"/>
<path d="M13501 8054 c0 -11 3 -14 6 -6 3 7 2 16 -1 19 -3 4 -6 -2 -5 -13z"/>
<path d="M15413 8058 c-7 -9 -4 -19 9 -30 10 -10 18 -14 18 -9 0 6 -4 12 -10
16 -5 3 -7 12 -3 20 6 18 -1 19 -14 3z"/>
<path d="M12128 8053 c6 -2 18 -2 25 0 6 3 1 5 -13 5 -14 0 -19 -2 -12 -5z"/>
<path d="M12024 8041 c3 -5 16 -11 28 -14 22 -6 22 -5 4 8 -22 17 -40 20 -32
6z"/>
<path d="M12210 8025 c-8 -9 -8 -15 -2 -15 12 0 26 19 19 26 -2 2 -10 -2 -17
-11z"/>
<path d="M15454 7986 c1 -8 5 -18 8 -22 4 -3 5 1 4 10 -1 8 -5 18 -8 22 -4 3
-5 -1 -4 -10z"/>
<path d="M16998 7993 c10 -4 10 -8 0 -21 -10 -12 -7 -12 15 2 15 10 27 19 27
20 0 0 -12 2 -28 2 -15 1 -21 -1 -14 -3z"/>
<path d="M13555 7970 c4 -6 11 -8 16 -5 14 9 11 15 -7 15 -8 0 -12 -5 -9 -10z"/>
<path d="M14485 7969 c-3 -4 2 -6 10 -5 21 3 28 13 10 13 -9 0 -18 -4 -20 -8z"/>
<path d="M15486 7951 c-3 -5 3 -11 15 -14 16 -4 18 -3 8 9 -13 16 -16 17 -23
5z"/>
<path d="M15555 7901 c31 -19 46 -18 44 2 0 9 -2 9 -6 0 -4 -10 -10 -10 -26 2
-12 8 -26 15 -32 15 -5 0 4 -8 20 -19z"/>
<path d="M14325 7901 c-6 -11 13 -26 22 -17 4 3 1 6 -6 6 -7 0 -9 5 -6 10 3 6
4 10 1 10 -3 0 -7 -4 -11 -9z"/>
<path d="M16891 7894 c0 -11 3 -14 6 -6 3 7 2 16 -1 19 -3 4 -6 -2 -5 -13z"/>
<path d="M14393 7885 c0 -7 6 -11 14 -8 7 3 13 6 13 8 0 2 -6 5 -13 8 -8 3
-14 -1 -14 -8z"/>
<path d="M13732 7876 c7 -8 15 -12 17 -11 5 6 -10 25 -20 25 -5 0 -4 -6 3 -14z"/>
<path d="M15550 7866 c0 -7 40 -14 44 -7 3 4 -6 8 -20 9 -13 1 -24 0 -24 -2z"/>
<path d="M14090 7831 c0 -10 19 -25 25 -20 1 2 -3 10 -11 17 -8 7 -14 8 -14 3z"/>
<path d="M15610 7833 c0 -15 18 -35 23 -27 3 5 -1 15 -9 22 -8 7 -14 9 -14 5z"/>
<path d="M16801 7824 c0 -11 3 -14 6 -6 3 7 2 16 -1 19 -3 4 -6 -2 -5 -13z"/>
<path d="M13978 7823 c7 -3 16 -2 19 1 4 3 -2 6 -13 5 -11 0 -14 -3 -6 -6z"/>
<path d="M13850 7816 c0 -2 7 -7 16 -10 8 -3 12 -2 9 4 -6 10 -25 14 -25 6z"/>
<path d="M13915 7810 c3 -5 8 -10 11 -10 2 0 4 5 4 10 0 6 -5 10 -11 10 -5 0
-7 -4 -4 -10z"/>
<path d="M14150 7810 c8 -5 20 -10 25 -10 6 0 3 5 -5 10 -8 5 -19 10 -25 10
-5 0 -3 -5 5 -10z"/>
<path d="M14205 7810 c-3 -6 1 -7 9 -4 18 7 21 14 7 14 -6 0 -13 -4 -16 -10z"/>
<path d="M15740 7745 c-14 -8 -20 -14 -14 -15 5 0 19 7 30 15 24 18 16 19 -16
0z"/>
<path d="M16640 7756 c0 -2 7 -7 16 -10 8 -3 12 -2 9 4 -6 10 -25 14 -25 6z"/>
<path d="M15796 7741 c-15 -6 -16 -10 -7 -16 8 -4 16 -2 21 5 4 7 13 9 20 5 9
-5 11 -4 6 3 -8 13 -13 14 -40 3z"/>
<path d="M16688 7713 c6 -2 18 -2 25 0 6 3 1 5 -13 5 -14 0 -19 -2 -12 -5z"/>
<path d="M16655 7699 c-4 -6 -5 -12 -2 -15 2 -3 7 2 10 11 7 17 1 20 -8 4z"/>
<path d="M15870 7670 c-9 -6 -10 -10 -3 -10 6 0 15 5 18 10 8 12 4 12 -15 0z"/>
<path d="M15916 7668 c3 -4 11 -5 19 -1 21 7 19 12 -4 10 -11 0 -18 -5 -15 -9z"/>
<path d="M16474 7672 c3 -6 -2 -13 -11 -15 -16 -4 -16 -5 -1 -6 21 -1 32 15
17 25 -7 4 -9 3 -5 -4z"/>
<path d="M16055 7660 c-3 -6 1 -7 9 -4 18 7 21 14 7 14 -6 0 -13 -4 -16 -10z"/>
<path d="M16400 7650 c0 -5 5 -10 11 -10 5 0 7 5 4 10 -3 6 -8 10 -11 10 -2 0
-4 -4 -4 -10z"/>
<path d="M15930 7640 c20 -13 33 -13 25 0 -3 6 -14 10 -23 10 -15 0 -15 -2 -2
-10z"/>
<path d="M16438 7633 c7 -3 16 -2 19 1 4 3 -2 6 -13 5 -11 0 -14 -3 -6 -6z"/>
<path d="M11080 6973 c-665 -68 -1209 -379 -1598 -912 -226 -310 -383 -702
-447 -1121 -22 -144 -31 -466 -16 -615 61 -626 309 -1158 732 -1571 421 -409
953 -624 1549 -624 389 0 724 93 1010 280 105 69 285 242 335 322 52 84 55 74
55 -202 l0 -250 805 0 805 0 0 2275 0 2275 -805 0 -805 0 0 -215 c0 -118 -2
-215 -4 -215 -2 0 -43 38 -90 83 -118 115 -246 205 -411 287 -292 146 -585
212 -923 208 -86 0 -173 -3 -192 -5z m795 -1403 c464 -66 782 -374 859 -829
65 -387 -68 -775 -341 -992 -273 -218 -707 -281 -1075 -155 -235 80 -421 242
-531 461 -83 167 -112 315 -104 542 4 129 10 175 31 251 96 344 337 591 671
688 139 40 345 54 490 34z"/>
<path d="M20940 6874 c-235 -32 -477 -116 -655 -227 -190 -118 -381 -314 -497
-511 -15 -25 -32 -46 -38 -46 -7 0 -10 124 -10 370 l0 370 -805 0 -805 0 0
-2275 0 -2275 804 0 805 0 4 1058 c4 1151 4 1143 63 1382 105 424 346 662 754
745 102 21 391 30 515 17 137 -15 284 -54 383 -102 l82 -39 0 774 0 775 -247
-1 c-152 -1 -289 -7 -353 -15z"/>
<path d="M15430 4555 l0 -2275 805 0 805 0 0 2275 0 2275 -805 0 -805 0 0
-2275z"/>
<path d="M4680 6770 c-595 -58 -1052 -348 -1353 -861 -283 -482 -407 -1183
-331 -1869 100 -897 581 -1567 1295 -1804 226 -75 422 -101 698 -93 308 9 527
63 796 197 171 86 297 174 432 303 287 276 448 572 547 1010 l6 27 -545 0
-545 0 -41 -82 c-124 -247 -292 -411 -489 -479 -89 -30 -285 -38 -384 -15
-347 82 -568 447 -605 1001 -5 77 -7 143 -4 148 2 4 582 7 1289 7 l1284 0 0
174 c0 942 -313 1692 -861 2061 -146 99 -337 182 -524 229 -171 43 -475 64
-665 46z m375 -875 c39 -8 108 -33 155 -57 153 -75 289 -238 376 -451 35 -86
75 -230 88 -314 l6 -43 -745 0 -745 0 0 23 c0 12 11 69 24 127 60 264 184 482
341 598 152 113 325 154 500 117z"/>
<path d="M5950 1385 c-249 -69 -440 -262 -496 -501 -20 -88 -20 -230 0 -319
45 -193 180 -363 357 -448 212 -103 414 -103 619 0 77 38 110 63 175 128 44
44 90 99 103 123 l23 42 -69 0 -69 0 -74 -72 c-117 -116 -241 -168 -396 -168
-195 0 -384 112 -483 285 -186 329 14 744 394 816 167 31 361 -33 489 -163
l67 -68 65 0 c43 0 65 4 65 12 0 23 -64 109 -118 160 -78 70 -150 115 -246
151 -73 27 -95 31 -216 34 -98 2 -150 -1 -190 -12z"/>
<path d="M7642 1380 c-349 -92 -571 -448 -497 -798 62 -295 330 -521 639 -539
127 -8 234 14 356 74 177 86 320 264 365 453 19 83 19 227 -1 310 -56 241
-266 446 -516 505 -89 21 -255 19 -346 -5z m301 -116 c107 -24 192 -69 273
-147 230 -218 234 -556 8 -783 -111 -113 -237 -164 -401 -164 -259 0 -489 181
-548 432 -57 243 72 504 305 616 129 62 232 75 363 46z"/>
<path d="M14864 1381 c-306 -83 -514 -352 -514 -666 0 -104 21 -190 72 -295
53 -109 176 -237 283 -292 215 -111 438 -116 650 -13 360 174 492 609 289 955
-74 126 -222 243 -376 297 -101 36 -298 42 -404 14z m291 -116 c214 -45 392
-214 440 -416 81 -345 -186 -679 -543 -679 -105 0 -183 19 -271 65 -91 48
-151 103 -209 189 -182 272 -79 642 221 793 120 60 233 75 362 48z"/>
<path d="M1398 737 c-152 -353 -280 -650 -283 -659 -6 -16 0 -18 63 -18 l70 0
45 103 c24 56 68 157 97 225 l52 122 307 -2 306 -3 95 -220 96 -220 67 -3 c49
-2 67 1 67 10 0 7 -125 304 -277 660 l-278 648 -75 0 -75 0 -277 -643z m477
196 c66 -157 122 -290 123 -295 2 -4 -110 -8 -248 -8 -236 0 -252 1 -246 18
22 60 242 572 246 572 3 0 59 -129 125 -287z"/>
<path d="M2790 720 l0 -660 65 0 65 0 0 660 0 660 -65 0 -65 0 0 -660z"/>
<path d="M3430 720 l0 -660 65 0 65 0 0 601 0 601 203 -4 c198 -3 203 -4 259
-31 154 -76 213 -258 132 -407 -57 -105 -152 -149 -342 -159 l-113 -6 223
-297 223 -298 77 0 c43 0 78 3 78 7 0 4 -82 115 -181 247 l-181 241 53 8 c117
16 236 103 289 211 80 163 47 359 -81 481 -111 106 -189 125 -526 125 l-243 0
0 -660z"/>
<path d="M8980 720 l0 -660 65 0 65 0 0 577 c0 504 2 575 14 563 8 -8 185
-267 394 -575 l378 -560 67 -3 67 -3 0 661 0 660 -65 0 -65 0 -2 -542 -3 -543
-175 259 c-96 142 -261 385 -365 540 l-191 281 -92 3 -92 3 0 -661z"/>
<path d="M10542 723 l3 -658 260 1 c167 0 281 5 320 13 150 31 261 94 362 204
137 151 198 364 159 557 -43 211 -178 387 -361 470 -124 56 -167 63 -468 67
l-277 5 2 -659z m549 523 c138 -30 247 -98 331 -208 214 -282 81 -706 -256
-817 -78 -26 -209 -41 -363 -41 l-123 0 0 540 0 540 173 0 c109 0 196 -5 238
-14z"/>
<path d="M12120 720 l0 -661 63 3 62 3 3 658 2 657 -65 0 -65 0 0 -660z"/>
<path d="M12640 1320 l0 -60 150 0 150 0 0 -600 0 -600 65 0 65 0 0 600 0 600
150 0 150 0 0 60 0 60 -365 0 -365 0 0 -60z"/>
<path d="M13760 720 l0 -660 65 0 65 0 0 660 0 660 -65 0 -65 0 0 -660z"/>
<path d="M16200 720 l0 -660 65 0 65 0 0 582 0 582 53 -76 c28 -42 103 -152
165 -245 63 -92 216 -319 340 -503 l227 -335 68 -3 67 -3 0 661 0 660 -65 0
-65 0 0 -542 c0 -413 -3 -539 -12 -530 -6 6 -172 249 -368 539 l-357 528 -92
3 -91 3 0 -661z"/>
<path d="M17762 723 l3 -658 358 -3 357 -2 0 60 0 60 -290 0 -290 0 0 245 0
245 280 0 280 0 0 60 0 60 -280 0 -280 0 0 235 0 235 290 0 290 0 0 60 0 60
-360 0 -360 0 2 -657z"/>
<path d="M18960 720 l0 -660 65 0 65 0 0 600 0 600 178 0 c238 0 305 -19 383
-107 49 -56 69 -109 69 -184 0 -90 -23 -150 -79 -208 -66 -68 -133 -91 -288
-99 l-122 -7 205 -275 c113 -151 215 -285 226 -297 19 -20 32 -23 95 -23 40 0
73 3 73 8 0 4 -82 115 -181 247 l-180 240 52 8 c163 24 300 159 329 327 29
169 -59 352 -208 433 -83 45 -176 57 -442 57 l-240 0 0 -660z"/>
</g>
</svg>
