<svg width="2158" height="984" xmlns="http://www.w3.org/2000/svg" preserveAspectRatio="xMidYMid meet" class="mx-auto h-auto w-32 py-3 sm:mx-0 lg:w-40 lg:py-5">
 <title>telair logo</title>

 <g>
  <title>Layer 1</title>
  <g id="svg_1" fill="#6B7280" transform="translate(0 984) scale(0.09 -0.08)">
   <path id="svg_2" d="m7280,6040l0,-3760l560,0l560,0l0,3760l0,3760l-560,0l-560,0l0,-3760z"/>
   <path id="svg_3" d="m16166,9561c-4,-5 3,-7 14,-4c23,6 26,13 6,13c-8,0 -17,-4 -20,-9z"/>
   <path id="svg_4" d="m16282,9566c2,-1 10,-7 19,-14c13,-10 18,-10 22,0c3,8 -5,14 -20,14c-13,1 -23,1 -21,0z"/>
   <path id="svg_5" d="m16026,9542c-2,-4 11,-8 30,-9c19,-1 34,1 34,5c0,9 -58,13 -64,4z"/>
   <path id="svg_6" d="m16218,9543c12,-2 32,-2 45,0c12,2 2,4 -23,4c-25,0 -35,-2 -22,-4z"/>
   <path id="svg_7" d="m16390,9540c0,-5 7,-7 15,-4c8,4 15,8 15,10c0,2 -7,4 -15,4c-8,0 -15,-4 -15,-10z"/>
   <path id="svg_8" d="m15802,9459c2,-7 19,-14 37,-15c38,-2 30,11 -13,22c-22,5 -28,4 -24,-7z"/>
   <path id="svg_9" d="m16605,9450c-19,-8 -19,-9 3,-9c12,-1 22,4 22,9c0,6 -1,10 -2,9c-2,0 -12,-4 -23,-9z"/>
   <path id="svg_10" d="m15724,9421c4,-5 0,-11 -6,-13c-7,-3 0,-7 15,-10c27,-5 27,-5 11,13c-18,20 -29,25 -20,10z"/>
   <path id="svg_11" d="m16750,9386c7,-7 13,-7 20,0c6,6 3,10 -10,10c-13,0 -16,-4 -10,-10z"/>
   <path id="svg_12" d="m16815,9344c4,-44 13,-41 27,10c2,5 -4,10 -14,12c-12,1 -15,-5 -13,-22zm18,1c-3,-9 -8,-14 -10,-11c-3,3 -2,9 2,15c9,16 15,13 8,-4z"/>
   <path id="svg_13" d="m13850,9340c-9,-6 -10,-10 -3,-10c6,0 15,5 18,10c8,12 4,12 -15,0z"/>
   <path id="svg_14" d="m13895,9340c-3,-6 1,-7 9,-4c18,7 21,14 7,14c-6,0 -13,-4 -16,-10z"/>
   <path id="svg_15" d="m14226,9335c19,-14 19,-14 -3,-15c-12,0 -25,-4 -28,-10c-3,-5 1,-8 9,-5c9,3 23,7 32,10c13,4 14,8 4,20c-7,8 -17,15 -23,15c-6,0 -2,-7 9,-15z"/>
   <path id="svg_16" d="m16869,9327c6,-8 7,-18 3,-22c-4,-5 -1,-5 6,-1c10,6 10,11 1,22c-6,8 -14,14 -16,14c-3,0 0,-6 6,-13z"/>
   <path id="svg_17" d="m15593,9324c4,-4 0,-16 -10,-26c-9,-11 -11,-18 -5,-18c7,0 12,5 12,11c0,5 5,7 12,3c6,-4 8,-3 4,4c-3,5 -1,12 6,14c7,3 4,7 -7,12c-11,4 -16,4 -12,0z"/>
   <path id="svg_18" d="m13865,9310c27,-12 43,-12 25,0c-8,5 -22,9 -30,9c-10,0 -8,-3 5,-9z"/>
   <path id="svg_19" d="m16909,9297c6,-8 7,-18 3,-22c-4,-5 -1,-5 6,-1c10,6 10,11 1,22c-6,8 -14,14 -16,14c-3,0 0,-6 6,-13z"/>
   <path id="svg_20" d="m14370,9290c0,-5 5,-10 11,-10c5,0 7,5 4,10c-3,6 -8,10 -11,10c-2,0 -4,-4 -4,-10z"/>
   <path id="svg_21" d="m15625,9290c3,-5 11,-10 16,-10c6,0 7,5 4,10c-3,6 -11,10 -16,10c-6,0 -7,-4 -4,-10z"/>
   <path id="svg_22" d="m15529,9264c-22,-25 -22,-26 -3,-16c12,6 24,18 28,27c8,21 3,19 -25,-11z"/>
   <path id="svg_23" d="m13657,9273c-10,-9 -9,-41 1,-47c4,-2 8,9 7,25c0,16 0,29 -1,29c0,0 -4,-3 -7,-7z"/>
   <path id="svg_24" d="m16885,9260c3,-5 8,-10 11,-10c2,0 4,5 4,10c0,6 -5,10 -11,10c-5,0 -7,-4 -4,-10z"/>
   <path id="svg_25" d="m15549,9243c-13,-16 -12,-17 4,-4c9,7 17,15 17,17c0,8 -8,3 -21,-13z"/>
   <path id="svg_26" d="m14425,9231c-3,-5 0,-13 6,-17c7,-4 9,-3 5,4c-3,5 0,13 6,15c9,4 10,6 1,6c-6,1 -14,-3 -18,-8z"/>
   <path id="svg_27" d="m15565,9230c-3,-5 -1,-10 4,-10c6,0 11,5 11,10c0,6 -2,10 -4,10c-3,0 -8,-4 -11,-10z"/>
   <path id="svg_28" d="m16930,9236c0,-2 9,-6 20,-9c11,-3 18,-1 14,4c-5,9 -34,13 -34,5z"/>
   <path id="svg_29" d="m16880,9221c0,-6 4,-13 10,-16c6,-3 7,1 4,9c-7,18 -14,21 -14,7z"/>
   <path id="svg_30" d="m13636,9212c-3,-4 4,-9 15,-9c23,-2 25,3 4,10c-8,4 -16,3 -19,-1z"/>
   <path id="svg_31" d="m15469,9199c-9,-17 -8,-25 5,-37c10,-11 16,-12 16,-4c0,7 -4,12 -10,12c-5,0 -10,5 -10,11c0,6 6,9 13,6c8,-3 13,3 13,14c0,25 -13,24 -27,-2z"/>
   <path id="svg_32" d="m16935,9210c3,-5 8,-10 11,-10c2,0 4,5 4,10c0,6 -5,10 -11,10c-5,0 -7,-4 -4,-10z"/>
   <path id="svg_33" d="m16966,9202c-3,-5 1,-9 9,-9c8,0 12,4 9,9c-3,4 -7,8 -9,8c-2,0 -6,-4 -9,-8z"/>
   <path id="svg_34" d="m13560,9169c0,-5 5,-7 10,-4c6,3 10,8 10,11c0,2 -4,4 -10,4c-5,0 -10,-5 -10,-11z"/>
   <path id="svg_35" d="m15511,9164c0,-11 3,-14 6,-6c3,7 2,16 -1,19c-3,4 -6,-2 -5,-13z"/>
   <path id="svg_36" d="m14534,9158c-3,-4 2,-8 10,-8c8,0 17,4 20,8c3,5 -2,9 -10,9c-8,0 -17,-4 -20,-9z"/>
   <path id="svg_37" d="m13530,9149c0,-5 -4,-7 -10,-4c-6,3 -7,-1 -4,-10c5,-12 9,-13 20,-4c16,13 18,29 4,29c-5,0 -10,-5 -10,-11z"/>
   <path id="svg_38" d="m17010,9148c0,-6 6,-8 14,-5c7,3 19,1 25,-4c8,-6 8,-5 1,3c-13,15 -40,19 -40,6z"/>
   <path id="svg_39" d="m12095,9140c-3,-5 -1,-10 4,-10c6,0 11,5 11,10c0,6 -2,10 -4,10c-3,0 -8,-4 -11,-10z"/>
   <path id="svg_40" d="m12150,9140c8,-5 24,-10 34,-10c26,0 18,6 -19,14c-22,5 -26,4 -15,-4z"/>
   <path id="svg_41" d="m14515,9130c-3,-5 -1,-10 4,-10c6,0 11,5 11,10c0,6 -2,10 -4,10c-3,0 -8,-4 -11,-10z"/>
   <path id="svg_42" d="m13476,9117c3,-10 9,-15 12,-12c3,3 0,11 -7,18c-10,9 -11,8 -5,-6z"/>
   <path id="svg_43" d="m14567,9110c-3,-11 -1,-20 4,-20c5,0 9,9 9,20c0,11 -2,20 -4,20c-2,0 -6,-9 -9,-20z"/>
   <path id="svg_44" d="m14600,9126c0,-2 8,-10 18,-17c15,-13 16,-12 3,4c-13,16 -21,21 -21,13z"/>
   <path id="svg_45" d="m12333,9103c9,-2 17,-9 17,-14c0,-5 5,-9 11,-9c8,0 8,5 -1,15c-7,8 -20,14 -29,14c-13,-1 -13,-2 2,-6z"/>
   <path id="svg_46" d="m12375,9100c3,-5 11,-10 16,-10c6,0 7,5 4,10c-3,6 -11,10 -16,10c-6,0 -7,-4 -4,-10z"/>
   <path id="svg_47" d="m13450,9099c0,-5 5,-7 10,-4c6,3 10,8 10,11c0,2 -4,4 -10,4c-5,0 -10,-5 -10,-11z"/>
   <path id="svg_48" d="m11934,9085c-3,-8 -4,-20 -2,-27c3,-7 7,-1 10,15c6,29 1,36 -8,12z"/>
   <path id="svg_49" d="m11960,9081c0,-10 19,-25 25,-20c1,2 -3,10 -11,17c-8,7 -14,8 -14,3z"/>
   <path id="svg_50" d="m14643,9075c0,-8 4,-15 9,-15c4,0 8,4 8,9c0,6 -4,12 -8,15c-5,3 -9,-1 -9,-9z"/>
   <path id="svg_51" d="m17080,9085c4,-21 -1,-30 -9,-16c-5,8 -11,9 -15,3c-8,-14 18,-22 35,-11c11,7 12,10 1,21c-8,7 -13,9 -12,3z"/>
   <path id="svg_52" d="m12427,9073c-10,-9 -9,-33 1,-33c4,0 8,9 9,20c2,21 0,24 -10,13z"/>
   <path id="svg_53" d="m12366,9051c-4,-5 3,-7 14,-4c23,6 26,13 6,13c-8,0 -17,-4 -20,-9z"/>
   <path id="svg_54" d="m12470,9050c-9,-6 -10,-10 -3,-10c6,0 15,5 18,10c8,12 4,12 -15,0z"/>
   <path id="svg_55" d="m13450,9049c0,-5 5,-7 10,-4c6,3 10,8 10,11c0,2 -4,4 -10,4c-5,0 -10,-5 -10,-11z"/>
   <path id="svg_56" d="m13500,9050c-9,-6 -10,-10 -3,-10c6,0 15,5 18,10c8,12 4,12 -15,0z"/>
   <path id="svg_57" d="m15374,9053c3,-4 18,-8 32,-9c14,-2 24,0 20,3c-3,3 -17,7 -32,9c-14,1 -23,0 -20,-3z"/>
   <path id="svg_58" d="m12525,9020c10,-11 20,-20 23,-20c3,0 -3,9 -13,20c-10,11 -20,20 -23,20c-3,0 3,-9 13,-20z"/>
   <path id="svg_59" d="m14690,9000c6,-11 13,-20 16,-20c2,0 0,9 -6,20c-6,11 -13,20 -16,20c-2,0 0,-9 6,-20z"/>
   <path id="svg_60" d="m11810,8990c0,-5 5,-10 10,-10c6,0 10,5 10,10c0,6 -4,10 -10,10c-5,0 -10,-4 -10,-10z"/>
   <path id="svg_61" d="m12550,8980c8,-5 20,-10 25,-10c6,0 3,5 -5,10c-8,5 -19,10 -25,10c-5,0 -3,-5 5,-10z"/>
   <path id="svg_62" d="m15326,8975c-8,-22 -8,-22 8,-28c11,-4 13,0 11,15c-6,28 -11,32 -19,13z"/>
   <path id="svg_63" d="m30,8400l0,-570l605,0l605,0l0,-2775l0,-2775l590,0l590,0l0,2775l0,2775l605,0l605,0l0,570l0,570l-1800,0l-1800,0l0,-570z"/>
   <path id="svg_64" d="m12575,8960c-16,-7 -17,-9 -3,-9c9,-1 20,4 23,9c7,11 7,11 -20,0z"/>
   <path id="svg_65" d="m11747,8943c-4,-3 -7,-11 -7,-17c0,-6 5,-5 12,2c6,6 9,14 7,17c-3,3 -9,2 -12,-2z"/>
   <path id="svg_66" d="m12620,8925c13,-14 26,-25 28,-25c3,0 -5,11 -18,25c-13,14 -26,25 -28,25c-3,0 5,-11 18,-25z"/>
   <path id="svg_67" d="m15316,8927c3,-10 9,-15 12,-12c3,3 0,11 -7,18c-10,9 -11,8 -5,-6z"/>
   <path id="svg_68" d="m15344,8918c-10,-16 -6,-86 6,-106c6,-12 7,-5 3,23c-3,22 -7,42 -9,44c-1,1 1,14 6,27c10,25 6,32 -6,12z"/>
   <path id="svg_69" d="m17126,8913c-4,-9 -3,-20 1,-24c4,-4 9,3 9,17c2,28 -1,31 -10,7z"/>
   <path id="svg_70" d="m12606,8907c3,-10 9,-15 12,-12c3,3 0,11 -7,18c-10,9 -11,8 -5,-6z"/>
   <path id="svg_71" d="m10774,8898c9,-5 23,-5 32,0c12,6 7,9 -16,9c-23,0 -28,-3 -16,-9z"/>
   <path id="svg_72" d="m11751,8894c0,-11 3,-14 6,-6c3,7 2,16 -1,19c-3,4 -6,-2 -5,-13z"/>
   <path id="svg_73" d="m14730,8905c0,-5 5,-17 10,-25c5,-8 10,-10 10,-5c0,6 -5,17 -10,25c-5,8 -10,11 -10,5z"/>
   <path id="svg_74" d="m11714,8875c1,-22 6,-31 19,-31c9,0 17,4 17,8c0,4 -5,8 -11,8c-6,0 -8,7 -5,16c3,8 2,13 -3,9c-5,-3 -11,1 -14,7c-2,7 -4,-1 -3,-17z"/>
   <path id="svg_75" d="m13336,8883c-6,-14 -5,-15 5,-6c7,7 10,15 7,18c-3,3 -9,-2 -12,-12z"/>
   <path id="svg_76" d="m15293,8869c-2,-23 3,-25 10,-4c4,8 3,16 -1,19c-4,3 -9,-4 -9,-15z"/>
   <path id="svg_77" d="m10650,8865c-11,-13 -10,-14 4,-9c9,3 16,10 16,15c0,13 -6,11 -20,-6z"/>
   <path id="svg_78" d="m11002,8860c7,-11 17,-20 22,-20c5,0 1,9 -9,20c-10,11 -20,20 -22,20c-2,0 2,-9 9,-20z"/>
   <path id="svg_79" d="m14766,8855c-9,-26 -7,-32 5,-12c6,10 9,21 6,23c-2,3 -7,-2 -11,-11z"/>
   <path id="svg_80" d="m17126,8862c-3,-5 1,-9 9,-9c8,0 12,4 9,9c-3,4 -7,8 -9,8c-2,0 -6,-4 -9,-8z"/>
   <path id="svg_81" d="m17161,8844c0,-11 3,-14 6,-6c3,7 2,16 -1,19c-3,4 -6,-2 -5,-13z"/>
   <path id="svg_82" d="m15308,8836c-19,-14 -23,-26 -10,-26c4,0 13,9 20,20c14,23 13,24 -10,6z"/>
   <path id="svg_83" d="m10609,8836c-7,-13 -6,-46 2,-46c7,0 9,9 6,21c-4,14 -2,19 7,16c7,-3 19,-2 25,3c9,5 4,8 -13,8c-14,0 -26,-1 -27,-2z"/>
   <path id="svg_84" d="m10683,8825c-3,-9 -3,-19 1,-22c3,-4 6,1 6,10c0,8 6,18 13,20c9,4 9,6 -1,6c-7,1 -15,-6 -19,-14z"/>
   <path id="svg_85" d="m12643,8825c0,-8 4,-12 9,-9c5,3 6,10 3,15c-9,13 -12,11 -12,-6z"/>
   <path id="svg_86" d="m11691,8814c0,-11 3,-14 6,-6c3,7 2,16 -1,19c-3,4 -6,-2 -5,-13z"/>
   <path id="svg_87" d="m13347,8823c-4,-3 -7,-11 -7,-17c0,-6 5,-5 12,2c6,6 9,14 7,17c-3,3 -9,2 -12,-2z"/>
   <path id="svg_88" d="m12679,8803c-8,-9 -9,-14 -3,-10c7,4 14,0 18,-8c3,-8 11,-15 17,-15c8,0 6,7 -4,18c-10,10 -14,22 -10,25c3,4 4,7 1,7c-3,0 -12,-8 -19,-17z"/>
   <path id="svg_89" d="m17175,8810c-3,-5 -1,-10 4,-10c6,0 11,5 11,10c0,6 -2,10 -4,10c-3,0 -8,-4 -11,-10z"/>
   <path id="svg_90" d="m12640,8781c0,-5 5,-13 10,-16c6,-3 10,-2 10,4c0,5 -4,13 -10,16c-5,3 -10,2 -10,-4z"/>
   <path id="svg_91" d="m15266,8773c-6,-14 -5,-15 5,-6c7,7 10,15 7,18c-3,3 -9,-2 -12,-12z"/>
   <path id="svg_92" d="m11066,8753c-6,-14 -5,-15 5,-6c7,7 10,15 7,18c-3,3 -9,-2 -12,-12z"/>
   <path id="svg_93" d="m11087,8747c-6,-15 28,-17 40,-1c5,5 4,6 -1,2c-5,-4 -15,-3 -21,2c-9,7 -14,6 -18,-3z"/>
   <path id="svg_94" d="m12660,8738c0,-7 10,-14 21,-15c12,-1 20,-1 18,0c-2,2 -12,9 -21,16c-15,11 -18,11 -18,-1z"/>
   <path id="svg_95" d="m10534,8732c-6,-4 -4,-13 8,-24c10,-10 18,-14 18,-9c0,6 -5,13 -10,16c-6,4 -8,11 -5,16c7,11 4,11 -11,1z"/>
   <path id="svg_96" d="m11627,8693c-4,-3 -7,-11 -7,-17c0,-6 5,-5 12,2c6,6 9,14 7,17c-3,3 -9,2 -12,-2z"/>
   <path id="svg_97" d="m11121,8664c0,-11 3,-14 6,-6c3,7 2,16 -1,19c-3,4 -6,-2 -5,-13z"/>
   <path id="svg_98" d="m14821,8664c0,-11 3,-14 6,-6c3,7 2,16 -1,19c-3,4 -6,-2 -5,-13z"/>
   <path id="svg_99" d="m11660,8653c0,-4 5,-15 10,-23c8,-13 10,-13 10,2c0,9 -4,20 -10,23c-5,3 -10,3 -10,-2z"/>
   <path id="svg_100" d="m13250,8631c0,-6 4,-13 10,-16c6,-3 7,1 4,9c-7,18 -14,21 -14,7z"/>
   <path id="svg_101" d="m14810,8631c0,-6 4,-13 10,-16c6,-3 7,1 4,9c-7,18 -14,21 -14,7z"/>
   <path id="svg_102" d="m15261,8624c0,-11 3,-14 6,-6c3,7 2,16 -1,19c-3,4 -6,-2 -5,-13z"/>
   <path id="svg_103" d="m10492,8595c0,-16 2,-22 5,-12c2,9 2,23 0,30c-3,6 -5,-1 -5,-18z"/>
   <path id="svg_104" d="m10527,8585c3,-22 7,-42 9,-44c8,-9 2,45 -6,64c-7,14 -8,8 -3,-20z"/>
   <path id="svg_105" d="m10551,8604c0,-11 3,-14 6,-6c3,7 2,16 -1,19c-3,4 -6,-2 -5,-13z"/>
   <path id="svg_106" d="m11141,8584c0,-11 3,-14 6,-6c3,7 2,16 -1,19c-3,4 -6,-2 -5,-13z"/>
   <path id="svg_107" d="m15270,8574c0,-16 -2,-17 -10,-4c-6,9 -10,10 -10,3c0,-19 20,-26 26,-8c4,9 4,19 0,22c-3,4 -6,-2 -6,-13z"/>
   <path id="svg_108" d="m11626,8565c-9,-26 -7,-32 5,-12c6,10 9,21 6,23c-2,3 -7,-2 -11,-11z"/>
   <path id="svg_109" d="m13261,8554c0,-11 3,-14 6,-6c3,7 2,16 -1,19c-3,4 -6,-2 -5,-13z"/>
   <path id="svg_110" d="m11147,8553c-4,-3 -7,-13 -7,-22c1,-13 3,-13 11,2c11,19 8,33 -4,20z"/>
   <path id="svg_111" d="m17222,8540c0,-14 2,-19 5,-12c2,6 2,18 0,25c-3,6 -5,1 -5,-13z"/>
   <path id="svg_112" d="m10511,8524c0,-11 3,-14 6,-6c3,7 2,16 -1,19c-3,4 -6,-2 -5,-13z"/>
   <path id="svg_113" d="m13260,8475c0,-14 4,-25 9,-25c4,0 6,11 3,25c-2,14 -6,25 -8,25c-2,0 -4,-11 -4,-25z"/>
   <path id="svg_114" d="m11647,8469c4,-13 8,-18 11,-10c2,7 -1,18 -6,23c-8,8 -9,4 -5,-13z"/>
   <path id="svg_115" d="m11132,8466c7,-8 15,-12 17,-11c5,6 -10,25 -20,25c-5,0 -4,-6 3,-14z"/>
   <path id="svg_116" d="m10526,8427c3,-10 9,-15 12,-12c3,3 0,11 -7,18c-10,9 -11,8 -5,-6z"/>
   <path id="svg_117" d="m11640,8424c0,-6 8,-18 18,-27c15,-14 19,-15 19,-2c0,8 -4,12 -8,9c-4,-2 -12,4 -18,13c-6,10 -11,13 -11,7z"/>
   <path id="svg_118" d="m14801,8414c0,-11 3,-14 6,-6c3,7 2,16 -1,19c-3,4 -6,-2 -5,-13z"/>
   <path id="svg_119" d="m12697,8379c6,-23 9,-24 16,-5c3,8 0,17 -7,19c-10,4 -12,-1 -9,-14z"/>
   <path id="svg_120" d="m13316,8386c10,-8 21,-12 24,-10c5,6 -21,24 -34,24c-6,0 -1,-6 10,-14z"/>
   <path id="svg_121" d="m14755,8363l-17,-28l23,22c12,12 20,25 17,28c-3,3 -13,-7 -23,-22z"/>
   <path id="svg_122" d="m10580,8361c0,-4 10,-12 23,-20c19,-13 21,-12 10,1c-7,8 -11,17 -8,20c3,2 -2,5 -10,5c-8,0 -15,-3 -15,-6z"/>
   <path id="svg_123" d="m11075,8360c-4,-6 -11,-8 -16,-5c-5,4 -9,1 -9,-4c0,-16 16,-13 30,4c7,8 10,15 7,15c-3,0 -9,-5 -12,-10z"/>
   <path id="svg_124" d="m12680,8339c0,-5 5,-7 10,-4c6,3 10,8 10,11c0,2 -4,4 -10,4c-5,0 -10,-5 -10,-11z"/>
   <path id="svg_125" d="m13290,8335c7,-9 15,-13 17,-11c7,7 -7,26 -19,26c-6,0 -6,-6 2,-15z"/>
   <path id="svg_126" d="m13340,8340c0,-5 5,-10 11,-10c5,0 7,5 4,10c-3,6 -8,10 -11,10c-2,0 -4,-4 -4,-10z"/>
   <path id="svg_127" d="m14775,8339c-11,-16 -1,-19 13,-3c7,8 8,14 3,14c-5,0 -13,-5 -16,-11z"/>
   <path id="svg_128" d="m10930,8310c-9,-6 -10,-10 -3,-10c6,0 15,5 18,10c8,12 4,12 -15,0z"/>
   <path id="svg_129" d="m14742,8308c-7,-7 -12,-16 -12,-22c0,-5 3,-6 7,-3c3,4 12,-1 20,-11c13,-15 13,-15 3,6c-6,12 -8,27 -5,32c8,14 2,13 -13,-2z"/>
   <path id="svg_130" d="m15340,8315c0,-5 5,-17 10,-25c5,-8 10,-10 10,-5c0,6 -5,17 -10,25c-5,8 -10,11 -10,5z"/>
   <path id="svg_131" d="m10650,8301c0,-6 4,-13 10,-16c6,-3 7,1 4,9c-7,18 -14,21 -14,7z"/>
   <path id="svg_132" d="m13341,8294c0,-11 3,-14 6,-6c3,7 2,16 -1,19c-3,4 -6,-2 -5,-13z"/>
   <path id="svg_133" d="m10753,8293c9,-2 15,-9 12,-14c-4,-5 -1,-9 4,-9c6,0 11,7 11,15c0,9 -9,15 -22,14c-18,-1 -19,-2 -5,-6z"/>
   <path id="svg_134" d="m11715,8270c-3,-5 -1,-10 4,-10c6,0 11,5 11,10c0,6 -2,10 -4,10c-3,0 -8,-4 -11,-10z"/>
   <path id="svg_135" d="m11750,8270c0,-5 0,-13 1,-16c0,-4 -5,-11 -13,-16c-11,-8 -10,-9 1,-6c13,4 28,48 16,48c-3,0 -5,-4 -5,-10z"/>
   <path id="svg_136" d="m10920,8259c0,-5 5,-7 10,-4c6,3 10,8 10,11c0,2 -4,4 -10,4c-5,0 -10,-5 -10,-11z"/>
   <path id="svg_137" d="m13315,8260c3,-5 8,-10 11,-10c2,0 4,5 4,10c0,6 -5,10 -11,10c-5,0 -7,-4 -4,-10z"/>
   <path id="svg_138" d="m17120,8265c0,-5 5,-17 10,-25c5,-8 10,-10 10,-5c0,6 -5,17 -10,25c-5,8 -10,11 -10,5z"/>
   <path id="svg_139" d="m15341,8244c0,-11 3,-14 6,-6c3,7 2,16 -1,19c-3,4 -6,-2 -5,-13z"/>
   <path id="svg_140" d="m14730,8240c0,-5 5,-10 11,-10c5,0 7,5 4,10c-3,6 -8,10 -11,10c-2,0 -4,-4 -4,-10z"/>
   <path id="svg_141" d="m11806,8215c4,-8 11,-15 16,-15c6,0 5,6 -2,15c-7,8 -14,15 -16,15c-2,0 -1,-7 2,-15z"/>
   <path id="svg_142" d="m12582,8217c-6,-7 -7,-18 -3,-25c5,-9 13,-6 27,10c19,22 19,22 0,8c-18,-14 -19,-13 -13,3c8,20 4,22 -11,4z"/>
   <path id="svg_143" d="m13337,8219c7,-7 15,-10 18,-7c3,3 -2,9 -12,12c-14,6 -15,5 -6,-5z"/>
   <path id="svg_144" d="m11782,8176c7,-8 15,-12 17,-11c5,6 -10,25 -20,25c-5,0 -4,-6 3,-14z"/>
   <path id="svg_145" d="m11855,8150c-4,-6 -11,-8 -16,-5c-5,4 -9,1 -9,-4c0,-16 16,-13 30,4c7,8 10,15 7,15c-3,0 -9,-5 -12,-10z"/>
   <path id="svg_146" d="m13390,8150c-9,-6 -10,-10 -3,-10c6,0 15,5 18,10c8,12 4,12 -15,0z"/>
   <path id="svg_147" d="m14646,8151c-4,-5 -2,-12 3,-15c5,-4 12,-2 15,3c4,5 2,12 -3,15c-5,4 -12,2 -15,-3z"/>
   <path id="svg_148" d="m17085,8150c-3,-5 -1,-10 4,-10c6,0 11,5 11,10c0,6 -2,10 -4,10c-3,0 -8,-4 -11,-10z"/>
   <path id="svg_149" d="m12490,8146c0,-2 8,-10 18,-17c15,-13 16,-12 3,4c-13,16 -21,21 -21,13z"/>
   <path id="svg_150" d="m15368,8133c7,-3 16,-2 19,1c4,3 -2,6 -13,5c-11,0 -14,-3 -6,-6z"/>
   <path id="svg_151" d="m15415,8120c3,-5 8,-10 11,-10c2,0 4,5 4,10c0,6 -5,10 -11,10c-5,0 -7,-4 -4,-10z"/>
   <path id="svg_152" d="m17090,8120c0,-5 5,-10 11,-10c5,0 7,5 4,10c-3,6 -8,10 -11,10c-2,0 -4,-4 -4,-10z"/>
   <path id="svg_153" d="m11896,8112c-3,-5 1,-9 9,-9c8,0 12,4 9,9c-3,4 -7,8 -9,8c-2,0 -6,-4 -9,-8z"/>
   <path id="svg_154" d="m12455,8099c-11,-17 1,-21 15,-4c8,9 8,15 2,15c-6,0 -14,-5 -17,-11z"/>
   <path id="svg_155" d="m15370,8106c0,-2 9,-6 20,-9c11,-3 20,-1 20,4c0,5 -9,9 -20,9c-11,0 -20,-2 -20,-4z"/>
   <path id="svg_156" d="m17048,8103c7,-3 16,-2 19,1c4,3 -2,6 -13,5c-11,0 -14,-3 -6,-6z"/>
   <path id="svg_157" d="m15420,8089c0,-5 5,-7 10,-4c6,3 10,8 10,11c0,2 -4,4 -10,4c-5,0 -10,-5 -10,-11z"/>
   <path id="svg_158" d="m11977,8074c7,-3 9,-12 6,-20c-5,-14 8,-19 20,-7c9,8 -12,33 -27,32c-7,0 -7,-2 1,-5z"/>
   <path id="svg_159" d="m12330,8076c0,-2 7,-7 16,-10c8,-3 12,-2 9,4c-6,10 -25,14 -25,6z"/>
   <path id="svg_160" d="m14596,8071c-3,-5 1,-11 9,-14c9,-4 12,-1 8,9c-6,16 -10,17 -17,5z"/>
   <path id="svg_161" d="m12088,8063c7,-3 16,-2 19,1c4,3 -2,6 -13,5c-11,0 -14,-3 -6,-6z"/>
   <path id="svg_162" d="m12208,8063c6,-2 18,-2 25,0c6,3 1,5 -13,5c-14,0 -19,-2 -12,-5z"/>
   <path id="svg_163" d="m13501,8054c0,-11 3,-14 6,-6c3,7 2,16 -1,19c-3,4 -6,-2 -5,-13z"/>
   <path id="svg_164" d="m15413,8058c-7,-9 -4,-19 9,-30c10,-10 18,-14 18,-9c0,6 -4,12 -10,16c-5,3 -7,12 -3,20c6,18 -1,19 -14,3z"/>
   <path id="svg_165" d="m12128,8053c6,-2 18,-2 25,0c6,3 1,5 -13,5c-14,0 -19,-2 -12,-5z"/>
   <path id="svg_166" d="m12024,8041c3,-5 16,-11 28,-14c22,-6 22,-5 4,8c-22,17 -40,20 -32,6z"/>
   <path id="svg_167" d="m12210,8025c-8,-9 -8,-15 -2,-15c12,0 26,19 19,26c-2,2 -10,-2 -17,-11z"/>
   <path id="svg_168" d="m15454,7986c1,-8 5,-18 8,-22c4,-3 5,1 4,10c-1,8 -5,18 -8,22c-4,3 -5,-1 -4,-10z"/>
   <path id="svg_169" d="m16998,7993c10,-4 10,-8 0,-21c-10,-12 -7,-12 15,2c15,10 27,19 27,20c0,0 -12,2 -28,2c-15,1 -21,-1 -14,-3z"/>
   <path id="svg_170" d="m13555,7970c4,-6 11,-8 16,-5c14,9 11,15 -7,15c-8,0 -12,-5 -9,-10z"/>
   <path id="svg_171" d="m14485,7969c-3,-4 2,-6 10,-5c21,3 28,13 10,13c-9,0 -18,-4 -20,-8z"/>
   <path id="svg_172" d="m15486,7951c-3,-5 3,-11 15,-14c16,-4 18,-3 8,9c-13,16 -16,17 -23,5z"/>
   <path id="svg_173" d="m15555,7901c31,-19 46,-18 44,2c0,9 -2,9 -6,0c-4,-10 -10,-10 -26,2c-12,8 -26,15 -32,15c-5,0 4,-8 20,-19z"/>
   <path id="svg_174" d="m14325,7901c-6,-11 13,-26 22,-17c4,3 1,6 -6,6c-7,0 -9,5 -6,10c3,6 4,10 1,10c-3,0 -7,-4 -11,-9z"/>
   <path id="svg_175" d="m16891,7894c0,-11 3,-14 6,-6c3,7 2,16 -1,19c-3,4 -6,-2 -5,-13z"/>
   <path id="svg_176" d="m14393,7885c0,-7 6,-11 14,-8c7,3 13,6 13,8c0,2 -6,5 -13,8c-8,3 -14,-1 -14,-8z"/>
   <path id="svg_177" d="m13732,7876c7,-8 15,-12 17,-11c5,6 -10,25 -20,25c-5,0 -4,-6 3,-14z"/>
   <path id="svg_178" d="m15550,7866c0,-7 40,-14 44,-7c3,4 -6,8 -20,9c-13,1 -24,0 -24,-2z"/>
   <path id="svg_179" d="m14090,7831c0,-10 19,-25 25,-20c1,2 -3,10 -11,17c-8,7 -14,8 -14,3z"/>
   <path id="svg_180" d="m15610,7833c0,-15 18,-35 23,-27c3,5 -1,15 -9,22c-8,7 -14,9 -14,5z"/>
   <path id="svg_181" d="m16801,7824c0,-11 3,-14 6,-6c3,7 2,16 -1,19c-3,4 -6,-2 -5,-13z"/>
   <path id="svg_182" d="m13978,7823c7,-3 16,-2 19,1c4,3 -2,6 -13,5c-11,0 -14,-3 -6,-6z"/>
   <path id="svg_183" d="m13850,7816c0,-2 7,-7 16,-10c8,-3 12,-2 9,4c-6,10 -25,14 -25,6z"/>
   <path id="svg_184" d="m13915,7810c3,-5 8,-10 11,-10c2,0 4,5 4,10c0,6 -5,10 -11,10c-5,0 -7,-4 -4,-10z"/>
   <path id="svg_185" d="m14150,7810c8,-5 20,-10 25,-10c6,0 3,5 -5,10c-8,5 -19,10 -25,10c-5,0 -3,-5 5,-10z"/>
   <path id="svg_186" d="m14205,7810c-3,-6 1,-7 9,-4c18,7 21,14 7,14c-6,0 -13,-4 -16,-10z"/>
   <path id="svg_187" d="m15740,7745c-14,-8 -20,-14 -14,-15c5,0 19,7 30,15c24,18 16,19 -16,0z"/>
   <path id="svg_188" d="m16640,7756c0,-2 7,-7 16,-10c8,-3 12,-2 9,4c-6,10 -25,14 -25,6z"/>
   <path id="svg_189" d="m15796,7741c-15,-6 -16,-10 -7,-16c8,-4 16,-2 21,5c4,7 13,9 20,5c9,-5 11,-4 6,3c-8,13 -13,14 -40,3z"/>
   <path id="svg_190" d="m16688,7713c6,-2 18,-2 25,0c6,3 1,5 -13,5c-14,0 -19,-2 -12,-5z"/>
   <path id="svg_191" d="m16655,7699c-4,-6 -5,-12 -2,-15c2,-3 7,2 10,11c7,17 1,20 -8,4z"/>
   <path id="svg_192" d="m15870,7670c-9,-6 -10,-10 -3,-10c6,0 15,5 18,10c8,12 4,12 -15,0z"/>
   <path id="svg_193" d="m15916,7668c3,-4 11,-5 19,-1c21,7 19,12 -4,10c-11,0 -18,-5 -15,-9z"/>
   <path id="svg_194" d="m16474,7672c3,-6 -2,-13 -11,-15c-16,-4 -16,-5 -1,-6c21,-1 32,15 17,25c-7,4 -9,3 -5,-4z"/>
   <path id="svg_195" d="m16055,7660c-3,-6 1,-7 9,-4c18,7 21,14 7,14c-6,0 -13,-4 -16,-10z"/>
   <path id="svg_196" d="m16400,7650c0,-5 5,-10 11,-10c5,0 7,5 4,10c-3,6 -8,10 -11,10c-2,0 -4,-4 -4,-10z"/>
   <path id="svg_197" d="m15930,7640c20,-13 33,-13 25,0c-3,6 -14,10 -23,10c-15,0 -15,-2 -2,-10z"/>
   <path id="svg_198" d="m16438,7633c7,-3 16,-2 19,1c4,3 -2,6 -13,5c-11,0 -14,-3 -6,-6z"/>
   <path id="svg_199" d="m11080,6973c-665,-68 -1209,-379 -1598,-912c-226,-310 -383,-702 -447,-1121c-22,-144 -31,-466 -16,-615c61,-626 309,-1158 732,-1571c421,-409 953,-624 1549,-624c389,0 724,93 1010,280c105,69 285,242 335,322c52,84 55,74 55,-202l0,-250l805,0l805,0l0,2275l0,2275l-805,0l-805,0l0,-215c0,-118 -2,-215 -4,-215c-2,0 -43,38 -90,83c-118,115 -246,205 -411,287c-292,146 -585,212 -923,208c-86,0 -173,-3 -192,-5zm795,-1403c464,-66 782,-374 859,-829c65,-387 -68,-775 -341,-992c-273,-218 -707,-281 -1075,-155c-235,80 -421,242 -531,461c-83,167 -112,315 -104,542c4,129 10,175 31,251c96,344 337,591 671,688c139,40 345,54 490,34z"/>
   <path id="svg_200" d="m20940,6874c-235,-32 -477,-116 -655,-227c-190,-118 -381,-314 -497,-511c-15,-25 -32,-46 -38,-46c-7,0 -10,124 -10,370l0,370l-805,0l-805,0l0,-2275l0,-2275l804,0l805,0l4,1058c4,1151 4,1143 63,1382c105,424 346,662 754,745c102,21 391,30 515,17c137,-15 284,-54 383,-102l82,-39l0,774l0,775l-247,-1c-152,-1 -289,-7 -353,-15z"/>
   <path id="svg_201" d="m15430,4555l0,-2275l805,0l805,0l0,2275l0,2275l-805,0l-805,0l0,-2275z"/>
   <path id="svg_202" d="m4680,6770c-595,-58 -1052,-348 -1353,-861c-283,-482 -407,-1183 -331,-1869c100,-897 581,-1567 1295,-1804c226,-75 422,-101 698,-93c308,9 527,63 796,197c171,86 297,174 432,303c287,276 448,572 547,1010l6,27l-545,0l-545,0l-41,-82c-124,-247 -292,-411 -489,-479c-89,-30 -285,-38 -384,-15c-347,82 -568,447 -605,1001c-5,77 -7,143 -4,148c2,4 582,7 1289,7l1284,0l0,174c0,942 -313,1692 -861,2061c-146,99 -337,182 -524,229c-171,43 -475,64 -665,46zm375,-875c39,-8 108,-33 155,-57c153,-75 289,-238 376,-451c35,-86 75,-230 88,-314l6,-43l-745,0l-745,0l0,23c0,12 11,69 24,127c60,264 184,482 341,598c152,113 325,154 500,117z"/>
   <path id="svg_203" d="m5950,1385c-249,-69 -440,-262 -496,-501c-20,-88 -20,-230 0,-319c45,-193 180,-363 357,-448c212,-103 414,-103 619,0c77,38 110,63 175,128c44,44 90,99 103,123l23,42l-69,0l-69,0l-74,-72c-117,-116 -241,-168 -396,-168c-195,0 -384,112 -483,285c-186,329 14,744 394,816c167,31 361,-33 489,-163l67,-68l65,0c43,0 65,4 65,12c0,23 -64,109 -118,160c-78,70 -150,115 -246,151c-73,27 -95,31 -216,34c-98,2 -150,-1 -190,-12z"/>
   <path id="svg_204" d="m7642,1380c-349,-92 -571,-448 -497,-798c62,-295 330,-521 639,-539c127,-8 234,14 356,74c177,86 320,264 365,453c19,83 19,227 -1,310c-56,241 -266,446 -516,505c-89,21 -255,19 -346,-5zm301,-116c107,-24 192,-69 273,-147c230,-218 234,-556 8,-783c-111,-113 -237,-164 -401,-164c-259,0 -489,181 -548,432c-57,243 72,504 305,616c129,62 232,75 363,46z"/>
   <path id="svg_205" d="m14864,1381c-306,-83 -514,-352 -514,-666c0,-104 21,-190 72,-295c53,-109 176,-237 283,-292c215,-111 438,-116 650,-13c360,174 492,609 289,955c-74,126 -222,243 -376,297c-101,36 -298,42 -404,14zm291,-116c214,-45 392,-214 440,-416c81,-345 -186,-679 -543,-679c-105,0 -183,19 -271,65c-91,48 -151,103 -209,189c-182,272 -79,642 221,793c120,60 233,75 362,48z"/>
   <path id="svg_206" d="m1398,737c-152,-353 -280,-650 -283,-659c-6,-16 0,-18 63,-18l70,0l45,103c24,56 68,157 97,225l52,122l307,-2l306,-3l95,-220l96,-220l67,-3c49,-2 67,1 67,10c0,7 -125,304 -277,660l-278,648l-75,0l-75,0l-277,-643zm477,196c66,-157 122,-290 123,-295c2,-4 -110,-8 -248,-8c-236,0 -252,1 -246,18c22,60 242,572 246,572c3,0 59,-129 125,-287z"/>
   <path id="svg_207" d="m2790,720l0,-660l65,0l65,0l0,660l0,660l-65,0l-65,0l0,-660z"/>
   <path id="svg_208" d="m3430,720l0,-660l65,0l65,0l0,601l0,601l203,-4c198,-3 203,-4 259,-31c154,-76 213,-258 132,-407c-57,-105 -152,-149 -342,-159l-113,-6l223,-297l223,-298l77,0c43,0 78,3 78,7c0,4 -82,115 -181,247l-181,241l53,8c117,16 236,103 289,211c80,163 47,359 -81,481c-111,106 -189,125 -526,125l-243,0l0,-660z"/>
   <path id="svg_209" d="m8980,720l0,-660l65,0l65,0l0,577c0,504 2,575 14,563c8,-8 185,-267 394,-575l378,-560l67,-3l67,-3l0,661l0,660l-65,0l-65,0l-2,-542l-3,-543l-175,259c-96,142 -261,385 -365,540l-191,281l-92,3l-92,3l0,-661z"/>
   <path id="svg_210" d="m10542,723l3,-658l260,1c167,0 281,5 320,13c150,31 261,94 362,204c137,151 198,364 159,557c-43,211 -178,387 -361,470c-124,56 -167,63 -468,67l-277,5l2,-659zm549,523c138,-30 247,-98 331,-208c214,-282 81,-706 -256,-817c-78,-26 -209,-41 -363,-41l-123,0l0,540l0,540l173,0c109,0 196,-5 238,-14z"/>
   <path id="svg_211" d="m12120,720l0,-661l63,3l62,3l3,658l2,657l-65,0l-65,0l0,-660z"/>
   <path id="svg_212" d="m12640,1320l0,-60l150,0l150,0l0,-600l0,-600l65,0l65,0l0,600l0,600l150,0l150,0l0,60l0,60l-365,0l-365,0l0,-60z"/>
   <path id="svg_213" d="m13760,720l0,-660l65,0l65,0l0,660l0,660l-65,0l-65,0l0,-660z"/>
   <path id="svg_214" d="m16200,720l0,-660l65,0l65,0l0,582l0,582l53,-76c28,-42 103,-152 165,-245c63,-92 216,-319 340,-503l227,-335l68,-3l67,-3l0,661l0,660l-65,0l-65,0l0,-542c0,-413 -3,-539 -12,-530c-6,6 -172,249 -368,539l-357,528l-92,3l-91,3l0,-661z"/>
   <path id="svg_215" d="m17762,723l3,-658l358,-3l357,-2l0,60l0,60l-290,0l-290,0l0,245l0,245l280,0l280,0l0,60l0,60l-280,0l-280,0l0,235l0,235l290,0l290,0l0,60l0,60l-360,0l-360,0l2,-657z"/>
   <path id="svg_216" d="m18960,720l0,-660l65,0l65,0l0,600l0,600l178,0c238,0 305,-19 383,-107c49,-56 69,-109 69,-184c0,-90 -23,-150 -79,-208c-66,-68 -133,-91 -288,-99l-122,-7l205,-275c113,-151 215,-285 226,-297c19,-20 32,-23 95,-23c40,0 73,3 73,8c0,4 -82,115 -181,247l-180,240l52,8c163,24 300,159 329,327c29,169 -59,352 -208,433c-83,45 -176,57 -442,57l-240,0l0,-660z"/>
  </g>
  <ellipse stroke="#6b7280" stroke-width="10" ry="29.28568" rx="32.14282" id="svg_218" cy="214.42777" cx="978.85468" fill="#6b7280"/>
  <ellipse stroke="#6b7280" stroke-width="12" ry="47.85709" rx="50.71423" id="svg_219" cy="210.14206" cx="1098.85453" fill="#6b7280"/>
  <path transform="rotate(0.120917 1265.28 211.571)" stroke="#6b7280" id="svg_220" d="m1265.28297,277.94716c-38.70224,0 -70.05106,-29.70441 -70.05106,-66.37653c0,-36.67211 31.34882,-66.37653 70.05106,-66.37653c38.70224,0 70.05106,29.70441 70.05106,66.37653c0,36.67211 -31.34882,66.37653 -70.05106,66.37653z" opacity="undefined" stroke-width="13" fill="#6b7280"/>
  <ellipse stroke="#6b7280" stroke-width="16" ry="85.71419" rx="92.14275" id="svg_221" cy="212.28492" cx="1467.42547" fill="#6b7280"/>
 </g>
</svg>