    <svg xmlns="http://www.w3.org/2000/svg" 
    class="mx-auto h-auto w-32 py-3 sm:mx-0 lg:w-40 lg:py-5" 
    viewBox="0 0 283.000000 118.000000" preserveAspectRatio="xMidYMid meet">

      <g fill="#6B7280" transform="translate(0.000000,118.000000) scale(0.090000,-0.090000)" stroke="none">
      <path d="M1953 1155 c-59 -18 -137 -70 -172 -114 -56 -71 -74 -120 -79 -211 -6 -118 19 -183 102 -266 65 -64 127 -95 219 -109 l47 -7 0 65 0 65 -37 7 c-182 34 -263 234 -150 371 33 40 116 84 160 84 27 0 27 1 27 65 l0 65 -37 -1 c-21 0 -57 -6 -80 -14z"/>
      <path d="M2343 1156 c-188 -61 -295 -244 -249 -426 73 -286 450 -371 651 -148 64 72 88 142 83 248 -3 73 -9 94 -38 148 -38 72 -90 121 -169 159 -45 22 -71 28 -145 30 -57 2 -107 -2 -133 -11z m220 -133 c46 -19 113 -93 127 -142 23 -83 5 -159 -53 -219 -67 -71 -157 -95 -248 -68 -106 31 -169 112 -169 220 0 114 75 199 205 229 28 7 93 -3 138 -20z"/>
      <path d="M10 1100 l0 -60 65 0 65 0 0 -290 0 -290 70 0 70 0 0 290 0 290 70 0 70 0 0 60 0 60 -205 0 -205 0 0 -60z"/>
      <path d="M450 810 l0 -350 195 0 195 0 0 60 0 60 -125 0 -125 0 0 80 0 80 125 0 125 0 0 60 0 60 -125 0 -125 0 0 85 0 85 125 0 125 0 0 65 0 65 -195 0 -195 0 0 -350z"/>
      <path d="M880 810 l0 -350 175 0 176 0 -3 63 -3 62 -107 3 -108 3 0 284 0 285 -65 0 -65 0 0 -350z"/>
      <path d="M1270 810 l0 -350 195 0 195 0 0 60 0 60 -125 0 -125 0 0 80 0 80 120 0 120 0 0 60 0 60 -120 0 -120 0 0 85 0 85 125 0 125 0 0 65 0 65 -195 0 -195 0 0 -350z"/>
      <path d="M1707 436 c-48 -18 -74 -41 -98 -88 -59 -115 26 -251 155 -251 92 0 154 54 159 141 l2 37 -82 3 c-83 3 -83 3 -83 -23 0 -24 3 -25 55 -25 32 0 55 -4 55 -11 0 -37 -56 -79 -105 -79 -39 0 -83 27 -105 63 -56 91 18 208 122 194 22 -3 47 -12 57 -21 13 -12 20 -13 29 -4 19 19 14 37 -17 52 -44 23 -101 28 -144 12z"/>
      <path d="M1956 312 c-3 -3 -6 -52 -6 -109 l0 -103 25 0 c24 0 25 2 25 73 0 79 15 115 43 104 18 -7 44 28 29 37 -11 7 -109 5 -116 -2z"/>
      <path d="M2118 299 c-83 -62 -36 -203 68 -203 68 0 114 48 114 120 0 28 -8 44 -34 70 -28 28 -41 34 -77 34 -28 -1 -54 -8 -71 -21z m112 -39 c65 -65 -20 -161 -87 -98 -30 28 -29 63 2 93 29 30 58 32 85 5z"/>
      <path d="M2330 232 c0 -61 4 -94 15 -108 30 -44 122 -36 144 12 6 14 11 61 11 105 0 78 -1 80 -22 77 -21 -3 -23 -9 -28 -88 -5 -79 -7 -85 -28 -88 -42 -6 -52 14 -52 99 0 72 -2 79 -20 79 -18 0 -20 -7 -20 -88z"/>
      <path d="M2540 160 l0 -160 25 0 c24 0 25 3 25 55 0 30 2 55 4 55 3 0 17 -5 32 -10 35 -14 87 3 107 33 35 55 26 131 -20 167 -28 22 -92 27 -110 9 -8 -8 -13 -8 -17 0 -4 6 -16 11 -27 11 -18 0 -19 -8 -19 -160z m150 93 c37 -47 10 -113 -45 -113 -54 0 -79 86 -36 122 32 25 56 23 81 -9z"/>
      </g>
    </svg>