<svg xmlns="http://www.w3.org/2000/svg" 
      class="mx-auto h-auto w-32 py-3 sm:mx-0 lg:w-40 lg:py-5" 
      viewBox="0 0 200 43">
    <title>
      vitrifrigo logo
    </title>
    <g fill="#6B7280" stroke="none">
        <path d="M35 29h5V0h-5zM48.34 29h5.241V5.274H59V0H43v5.274h5.34z"/>
        <path d="M60.408 29.094h5.232v-10.88l7.713 10.88h6.5l-7.734-10.49c1.989-.43 3.714-1.252 5.09-2.778 1.375-1.562 2.33-4.184 2.33-6.294 0-2.697-1.258-5.405-3.285-7.134C74.108.552 71.485.395 68.702.356h-8.294v28.738zm5.232-14.947V5.582h3.022c1.512-.039 2.784.04 4.056.979 1.033.744 1.59 1.992 1.59 3.245a4.213 4.213 0 0 1-1.355 3.127c-1.073 1.018-2.9 1.214-4.33 1.214H65.64z" />
        <path d="M82.148 29.093h5.232V.46h-5.232zM90.702 29.094h5.232V17.388h8.938V12.16h-8.938V5.582h9.37V.356H90.701zM108.165 29.094h5.232v-10.88l7.712 10.88h6.5l-7.733-10.49c1.988-.43 3.713-1.252 5.09-2.778 1.375-1.562 2.33-4.184 2.33-6.294 0-2.697-1.258-5.405-3.286-7.134-2.146-1.846-4.768-2.003-7.552-2.042h-8.293v28.738zm5.232-14.947V5.582h3.022c1.511-.039 2.784.04 4.056.979 1.033.744 1.59 1.992 1.59 3.245a4.213 4.213 0 0 1-1.355 3.127c-1.073 1.018-2.901 1.214-4.33 1.214h-2.983zM129.905 29.093h5.232V.46h-5.232zM166.514 9.016C164.322 3.497 158.38 0 152.518 0c-8.468 0-15.485 6.657-15.485 15.079 0 8.332 7.056 14.83 15.563 14.83 8.247 0 15.364-6.384 15.364-14.677v-.612h-18.845v4.938h12.08c-1.564 3.042-5.042 5.124-8.446 5.124-2.772 0-5.58-1.157-7.605-3.199-1.743-1.694-2.88-4.223-2.88-6.597 0-2.625 1.38-5.447 3.447-7.187a10.734 10.734 0 0 1 6.807-2.472c2.89 0 5.863 1.43 7.584 3.789h6.412zM184.91 0c-8.464 0-15.09 6.728-15.09 15.011 0 8.244 6.744 14.897 15.09 14.897 8.347 0 15.09-6.653 15.09-14.897C200 6.728 193.375 0 184.91 0m0 5.227c5.486 0 9.858 4.315 9.858 9.67 0 5.277-4.494 9.785-9.858 9.785-5.367 0-9.858-4.508-9.858-9.785 0-5.355 4.373-9.67 9.858-9.67"/>
        <path d="m11.226.459.31.534 2.52 4.358.453.78h8.927l-6.81 11.773L6.536.459H0l16.626 28.752L33.25.459z"/>
        <path d="M121.514 40.115c-.427 1.014-1.576 1.885-3.028 1.885-1.951 0-3.439-1.503-3.439-3.406 0-1.876 1.453-3.406 3.43-3.406 1.63 0 2.654 1.085 3.037 1.921h-.793c-.222-.391-.97-1.272-2.244-1.272-1.541 0-2.7 1.219-2.7 2.748 0 1.557 1.168 2.766 2.7 2.766 1.38 0 2.084-.987 2.244-1.236h.793zM122.914 38.594c0 1.548 1.167 2.757 2.708 2.757 1.56 0 2.7-1.254 2.7-2.757 0-1.503-1.14-2.757-2.709-2.757-1.55 0-2.699 1.228-2.699 2.748v.01zm-.739.018c0-2.028 1.577-3.424 3.438-3.424 1.933 0 3.439 1.476 3.439 3.406 0 1.93-1.497 3.406-3.439 3.406-1.95 0-3.438-1.503-3.438-3.38v-.008zM130.496 38.594c0 1.548 1.168 2.757 2.709 2.757 1.559 0 2.699-1.254 2.699-2.757 0-1.503-1.14-2.757-2.709-2.757-1.55 0-2.699 1.228-2.699 2.748v.01zm-.739.018c0-2.028 1.577-3.424 3.438-3.424 1.934 0 3.44 1.476 3.44 3.406 0 1.93-1.498 3.406-3.44 3.406-1.95 0-3.438-1.503-3.438-3.38v-.008zM137.66 35.304h.74v5.931h2.512v.65h-3.251zM146.222 36.13l-1.31 3.3h2.628l-1.318-3.3zm-2.29 5.755h-.792l2.752-6.581h.713l2.726 6.58h-.802l-.766-1.85h-3.073l-.757 1.85zM154.677 40.8l-.009-5.496h.713v6.58h-.713l-3.91-5.54.017 5.54h-.712v-6.58h.748zM157.431 41.235h1.31c1.692 0 2.573-1.04 2.573-2.623 0-.765-.204-1.44-.64-1.921-.42-.444-1.034-.738-1.933-.738h-1.31v5.282zm-.73-5.931h1.968c.936 0 1.933.204 2.592.987.535.587.793 1.36.793 2.294 0 1.983-1.131 3.3-3.349 3.3h-2.004v-6.581zM166.368 41.235h1.193c.268 0 .562-.026.802-.124.392-.17.686-.507.695-1.094 0-.534-.285-.925-.704-1.112-.294-.124-.516-.133-.926-.133h-1.06v2.463zm0-3.086h.997c.303 0 .57-.035.776-.133.418-.23.534-.578.534-.978 0-.48-.259-.81-.534-.934-.17-.089-.393-.142-.82-.15h-.953v2.195zm-.73-2.845h1.736c.597 0 1.007.107 1.3.311.535.303.714.854.714 1.37 0 .773-.437 1.164-.883 1.396 1.185.364 1.265 1.37 1.265 1.672-.009.71-.338 1.245-.9 1.538-.391.24-.765.294-1.416.294h-1.817v-6.581zM170.76 35.304h3.652v.65h-2.921v2.284h2.904v.65h-2.904v2.347h2.921v.65h-3.652zM177.157 39.572l-2.12-4.268h.802l1.692 3.557 1.684-3.557h.801l-2.12 4.268v2.312h-.739zM180.846 38.594c0 1.548 1.167 2.757 2.708 2.757 1.559 0 2.7-1.254 2.7-2.757 0-1.503-1.141-2.757-2.71-2.757-1.549 0-2.698 1.228-2.698 2.748v.01zm-.74.018c0-2.028 1.577-3.424 3.439-3.424 1.933 0 3.439 1.476 3.439 3.406 0 1.93-1.497 3.406-3.44 3.406-1.95 0-3.437-1.503-3.437-3.38v-.008zM192.615 40.8l-.009-5.496h.713v6.58h-.713l-3.91-5.54.017 5.54h-.712v-6.58h.748zM195.37 41.235h1.309c1.692 0 2.574-1.04 2.574-2.623 0-.765-.205-1.44-.641-1.921-.42-.444-1.034-.738-1.933-.738h-1.31v5.282zm-.731-5.931h1.968c.936 0 1.933.204 2.592.987.535.587.793 1.36.793 2.294 0 1.983-1.131 3.3-3.349 3.3h-2.004v-6.581z"/>
    </g>
</svg>