<?xml version="1.0" standalone="no"?>
<!DOCTYPE svg PUBLIC "-//W3C//DTD SVG 20010904//EN"
 "http://www.w3.org/TR/2001/REC-SVG-20010904/DTD/svg10.dtd">
<svg version="1.0" xmlns="http://www.w3.org/2000/svg"
 width="180.000000pt" height="180.000000pt" viewBox="0 0 180.000000 180.000000"
 preserveAspectRatio="xMidYMid meet">

<g transform="translate(0.000000,180.000000) scale(0.100000,-0.100000)"
fill="#000000" stroke="none">
<path d="M433 1539 c-29 -8 -33 -14 -33 -44 0 -57 -70 -122 -86 -80 -10 24
-31 17 -60 -20 -22 -29 -25 -41 -19 -72 10 -55 -19 -113 -56 -113 -26 0 -30
-5 -45 -55 -14 -51 -14 -58 0 -80 29 -44 16 -131 -20 -147 -22 -10 -24 -18
-24 -78 0 -60 2 -68 23 -77 35 -16 51 -101 26 -134 -23 -29 -23 -33 -4 -97 14
-47 19 -52 44 -52 39 0 65 -52 56 -113 -5 -37 -2 -46 23 -77 29 -34 31 -34 49
-18 26 24 31 23 64 -12 18 -19 29 -41 29 -59 0 -32 13 -45 51 -54 22 -6 27 -2
38 28 11 31 17 35 46 35 29 0 35 -4 46 -35 15 -39 18 -39 104 1 44 20 46 23
23 23 -22 1 -28 6 -28 24 0 23 37 67 57 67 5 0 18 -9 28 -20 21 -23 31 -24
184 -8 l116 11 -105 24 c-57 13 -108 27 -112 31 -17 17 -21 79 -6 84 8 3 81
14 163 24 l150 19 -192 3 -192 2 -45 -48 c-146 -157 -347 -111 -451 103 -54
110 -70 182 -70 325 0 189 46 329 142 431 65 69 106 89 188 89 82 0 123 -20
188 -89 l48 -51 297 1 297 1 -145 14 c-80 7 -199 18 -264 24 -66 6 -122 13
-125 15 -2 3 0 22 5 43 l9 37 105 26 105 26 -50 6 c-27 3 -88 9 -135 12 -78 6
-87 5 -104 -14 -24 -27 -38 -26 -63 2 -34 35 -33 60 1 67 29 5 29 5 -20 27
-84 38 -88 37 -103 -2 -11 -31 -17 -35 -46 -35 -29 0 -35 4 -46 35 -7 19 -15
35 -19 34 -3 0 -20 -5 -37 -10z"/>
<path d="M427 1281 c-160 -102 -230 -416 -145 -656 76 -219 249 -298 393 -180
l30 24 -48 1 c-33 0 -46 -4 -41 -11 11 -18 -17 -29 -79 -29 -70 0 -100 14
-156 75 -154 167 -154 523 0 690 24 26 56 53 73 62 53 27 174 18 162 -13 -4
-11 5 -14 41 -14 45 0 46 0 28 20 -31 34 -97 60 -156 60 -44 0 -65 -6 -102
-29z"/>
<path d="M817 952 c-33 -37 -19 -82 36 -115 30 -19 36 -54 10 -64 -10 -4 -23
2 -35 17 -21 26 -33 21 -23 -9 19 -60 95 -40 95 24 0 30 -6 38 -40 60 -41 26
-44 32 -34 59 8 21 34 20 50 -1 19 -27 29 -7 10 22 -19 30 -46 32 -69 7z"/>
<path d="M990 861 c0 -67 4 -111 10 -111 6 0 10 16 10 35 0 25 4 35 16 35 8 0
22 -16 30 -35 8 -19 19 -35 24 -35 13 0 13 13 -2 45 -9 19 -9 28 0 37 17 17
15 103 -2 117 -8 7 -30 15 -50 18 l-36 6 0 -112z m69 65 c7 -8 11 -27 9 -43
-2 -22 -9 -29 -30 -31 -26 -3 -28 -1 -28 36 0 21 3 42 7 45 11 11 30 8 42 -7z"/>
<path d="M1160 945 c-28 -30 -38 -116 -18 -155 16 -29 52 -50 78 -43 54 14 69
165 20 205 -30 25 -52 23 -80 -7z m80 -34 c5 -11 10 -36 10 -56 0 -49 -16 -75
-45 -75 -30 0 -55 34 -55 75 0 62 65 103 90 56z"/>
<path d="M1331 944 c-29 -37 -37 -90 -20 -138 24 -69 85 -81 115 -24 19 36 8
52 -13 21 -17 -25 -52 -30 -71 -11 -7 7 -12 35 -12 63 0 28 5 56 12 63 19 19
54 14 71 -10 21 -32 32 -16 13 20 -25 49 -64 56 -95 16z"/>
<path d="M1656 866 c-30 -120 -29 -116 -17 -116 5 0 13 9 16 20 5 14 15 20 37
20 21 0 31 -6 35 -20 3 -11 11 -20 18 -20 15 0 -35 212 -52 217 -6 2 -22 -42
-37 -101z m58 -48 c-3 -4 -14 -8 -26 -8 -19 0 -20 4 -14 42 10 62 18 66 32 18
7 -24 11 -47 8 -52z"/>
<path d="M380 855 c0 -59 4 -105 9 -105 6 0 11 17 13 38 2 30 7 38 26 40 31 5
29 32 -3 32 -22 0 -25 4 -25 35 0 32 2 35 30 35 20 0 30 5 30 15 0 11 -11 15
-40 15 l-40 0 0 -105z"/>
<path d="M500 855 c0 -63 4 -105 10 -105 6 0 10 42 10 105 0 63 -4 105 -10
105 -6 0 -10 -42 -10 -105z"/>
<path d="M570 855 l0 -105 40 0 c29 0 40 4 40 15 0 10 -10 15 -30 15 l-30 0 0
90 c0 53 -4 90 -10 90 -6 0 -10 -42 -10 -105z"/>
<path d="M690 855 l0 -105 40 0 c29 0 40 4 40 15 0 10 -10 15 -30 15 l-30 0 0
90 c0 53 -4 90 -10 90 -6 0 -10 -42 -10 -105z"/>
<path d="M1480 855 c0 -63 4 -105 10 -105 6 0 10 20 10 45 0 45 0 45 35 45 35
0 35 0 35 -45 0 -25 5 -45 10 -45 6 0 10 42 10 105 0 59 -4 105 -9 105 -6 0
-11 -19 -13 -42 -3 -40 -5 -43 -33 -43 -28 0 -30 3 -33 43 -2 23 -7 42 -13 42
-5 0 -9 -46 -9 -105z"/>
<path d="M1250 533 c0 -5 24 -7 52 -5 89 5 97 9 21 11 -40 0 -73 -2 -73 -6z"/>
<path d="M1250 488 c0 -13 16 -16 50 -9 l35 8 -42 4 c-24 3 -43 1 -43 -3z"/>
<path d="M1390 428 c0 -4 16 -8 35 -8 19 0 35 2 35 4 0 2 -16 6 -35 8 -19 2
-35 0 -35 -4z"/>
<path d="M1283 423 c15 -2 37 -2 50 0 12 2 0 4 -28 4 -27 0 -38 -2 -22 -4z"/>
</g>
</svg>
