<svg xmlns="http://www.w3.org/2000/svg" xmlns:xlink="http://www.w3.org/1999/xlink" width="50" zoomAndPan="magnify" viewBox="0 0 37.5 37.499999" height="50" preserveAspectRatio="xMidYMid meet" version="1.0"><defs><clipPath id="c5d2eaccde"><path d="M 1.109375 3.34375 L 37.007812 3.34375 L 37.007812 33.691406 L 1.109375 33.691406 Z M 1.109375 3.34375 " clip-rule="nonzero"/></clipPath></defs><g clip-path="url(#c5d2eaccde)"><path fill="#f75f02" d="M 27.507812 26.460938 L 24.070312 26.460938 C 22.078125 28.390625 19.363281 29.574219 16.371094 29.574219 C 10.257812 29.574219 5.296875 24.617188 5.296875 18.5 C 5.296875 12.382812 10.257812 7.425781 16.371094 7.425781 C 19.363281 7.425781 22.078125 8.613281 24.070312 10.539062 L 53.265625 10.539062 L 26.417969 9.203125 L 27.035156 7.585938 L 36.3125 6.277344 L 24.644531 5.675781 L 23.203125 6.636719 C 22.621094 6.304688 22.015625 6.011719 21.386719 5.761719 L 21.328125 5.0625 L 24.644531 5.054688 L 21.238281 4.03125 C 20.285156 3.710938 19.289062 3.480469 18.261719 3.355469 L 17.378906 4.851562 C 17.046875 4.828125 16.710938 4.808594 16.371094 4.808594 C 16.035156 4.808594 15.699219 4.828125 15.367188 4.851562 L 14.484375 3.355469 C 13.457031 3.480469 12.460938 3.710938 11.507812 4.03125 L 11.359375 5.761719 C 10.730469 6.011719 10.125 6.304688 9.542969 6.636719 L 8.101562 5.675781 C 7.238281 6.230469 6.4375 6.871094 5.710938 7.582031 L 6.328125 9.203125 C 5.871094 9.695312 5.449219 10.222656 5.070312 10.777344 L 3.351562 10.535156 C 2.824219 11.398438 2.378906 12.320312 2.027344 13.285156 L 3.285156 14.472656 C 3.089844 15.113281 2.9375 15.769531 2.835938 16.445312 L 1.1875 16.96875 C 1.136719 17.472656 1.109375 17.984375 1.109375 18.5 C 1.109375 19.015625 1.136719 19.527344 1.1875 20.03125 L 2.835938 20.558594 C 2.9375 21.230469 3.089844 21.890625 3.285156 22.527344 L 2.027344 23.71875 C 2.378906 24.683594 2.824219 25.601562 3.351562 26.464844 L 5.070312 26.222656 C 5.449219 26.777344 5.871094 27.304688 6.328125 27.796875 L 5.707031 29.417969 C 6.4375 30.128906 7.238281 30.769531 8.101562 31.328125 L 9.542969 30.363281 C 10.125 30.699219 10.730469 30.992188 11.359375 31.238281 L 11.507812 32.96875 C 12.460938 33.289062 13.457031 33.519531 14.484375 33.644531 L 15.367188 32.148438 C 15.699219 32.175781 16.035156 32.191406 16.371094 32.191406 C 16.710938 32.191406 17.046875 32.175781 17.378906 32.148438 L 18.261719 33.644531 C 19.289062 33.519531 20.285156 33.289062 21.238281 32.96875 L 24.644531 31.949219 L 21.324219 31.9375 L 21.382812 31.238281 C 22.015625 30.992188 22.621094 30.699219 23.203125 30.363281 L 24.644531 31.328125 L 36.3125 30.722656 L 27.035156 29.417969 L 26.417969 27.796875 L 42.777344 26.460938 L 27.507812 26.460938 " fill-opacity="1" fill-rule="nonzero"/></g><path fill="#737373" d="M 20.46875 10.539062 L 22.519531 10.539062 C 20.816406 9.226562 18.6875 8.441406 16.371094 8.441406 C 10.816406 8.441406 6.316406 12.945312 6.316406 18.5 C 6.316406 24.054688 10.816406 28.558594 16.371094 28.558594 C 18.6875 28.558594 20.816406 27.777344 22.519531 26.460938 L 16.703125 26.460938 L 19.273438 26.972656 C 18.363281 27.285156 17.386719 27.453125 16.371094 27.453125 C 11.429688 27.453125 7.421875 23.445312 7.421875 18.5 C 7.421875 13.558594 11.429688 9.550781 16.371094 9.550781 C 17.386719 9.550781 18.363281 9.71875 19.273438 10.03125 L 16.703125 10.539062 L 20.46875 10.539062 " fill-opacity="1" fill-rule="nonzero"/></svg>